<?xml version="1.0" encoding="utf-8" standalone="no"?>
<!DOCTYPE svg PUBLIC "-//W3C//DTD SVG 1.1//EN"
  "http://www.w3.org/Graphics/SVG/1.1/DTD/svg11.dtd">
<svg xmlns:xlink="http://www.w3.org/1999/xlink" width="368.683534pt" height="242.75505pt" viewBox="0 0 368.683534 242.75505" xmlns="http://www.w3.org/2000/svg" version="1.1">
 <metadata>
  <rdf:RDF xmlns:dc="http://purl.org/dc/elements/1.1/" xmlns:cc="http://creativecommons.org/ns#" xmlns:rdf="http://www.w3.org/1999/02/22-rdf-syntax-ns#">
   <cc:Work>
    <dc:type rdf:resource="http://purl.org/dc/dcmitype/StillImage"/>
    <dc:date>2026-06-26T19:26:36.399728</dc:date>
    <dc:format>image/svg+xml</dc:format>
    <dc:creator>
     <cc:Agent>
      <dc:title>Matplotlib v3.11.0, https://matplotlib.org/</dc:title>
     </cc:Agent>
    </dc:creator>
   </cc:Work>
  </rdf:RDF>
 </metadata>
 <defs>
  <style type="text/css">*{stroke-linejoin: round; stroke-linecap: butt}</style>
 </defs>
 <g id="figure_1">
  <g id="patch_1">
   <path d="M 0 242.75505 
L 368.683534 242.75505 
L 368.683534 0 
L 0 0 
z
" style="fill: #ffffff"/>
  </g>
  <g id="axes_1">
   <g id="patch_2">
    <path d="M 36.995975 208.697079 
L 366.523534 208.697079 
L 366.523534 6.351777 
L 36.995975 6.351777 
z
" style="fill: #ffffff"/>
   </g>
   <g id="matplotlib.axis_1">
    <g id="xtick_1">
     <g id="line2d_1">
      <path d="M 48.182468 208.697079 
L 48.182468 6.351777 
" clip-path="url(#pc4059ce219)" style="fill: none; stroke: #b0b0b0; stroke-opacity: 0.3; stroke-width: 0.5; stroke-linecap: square"/>
     </g>
     <g id="line2d_2">
      <defs>
       <path id="m26b2c0aa1e" d="M 0 0 
L 0 -5 
" style="stroke: #000000; stroke-width: 0.8"/>
      </defs>
      <g>
       <use xlink:href="#m26b2c0aa1e" x="48.182468" y="208.697079" style="stroke: #000000; stroke-width: 0.8"/>
      </g>
     </g>
     <g id="line2d_3">
      <defs>
       <path id="mc74e0297e1" d="M 0 0 
L 0 5 
" style="stroke: #000000; stroke-width: 0.8"/>
      </defs>
      <g>
       <use xlink:href="#mc74e0297e1" x="48.182468" y="6.351777" style="stroke: #000000; stroke-width: 0.8"/>
      </g>
     </g>
     <g id="text_1">
      <!-- $\mathdefault{0}$ -->
      <g transform="translate(45.402891 220.580634) scale(0.12 -0.12)">
       <defs>
        <path id="LinLibertineT-11" d="M 1484 3679 
C 1593 3679 1696 3641 1772 3571 
C 1971 3405 2144 2918 2144 2060 
C 2144 1472 2124 1068 2035 742 
C 1894 217 1580 160 1465 160 
C 870 160 806 1254 806 1811 
C 806 3385 1196 3679 1484 3679 
z
M 1459 -64 
C 1952 -64 2700 435 2700 1939 
C 2700 2572 2547 3116 2265 3488 
C 2099 3711 1830 3904 1484 3904 
C 851 3904 249 3148 249 1881 
C 249 1196 460 556 812 204 
C 992 25 1209 -64 1459 -64 
z
" transform="scale(0.015625)"/>
       </defs>
       <use xlink:href="#LinLibertineT-11" transform="scale(0.996264)"/>
      </g>
     </g>
    </g>
    <g id="xtick_2">
     <g id="line2d_4">
      <path d="M 86.102786 208.697079 
L 86.102786 6.351777 
" clip-path="url(#pc4059ce219)" style="fill: none; stroke: #b0b0b0; stroke-opacity: 0.3; stroke-width: 0.5; stroke-linecap: square"/>
     </g>
     <g id="line2d_5">
      <g>
       <use xlink:href="#m26b2c0aa1e" x="86.102786" y="208.697079" style="stroke: #000000; stroke-width: 0.8"/>
      </g>
     </g>
     <g id="line2d_6">
      <g>
       <use xlink:href="#mc74e0297e1" x="86.102786" y="6.351777" style="stroke: #000000; stroke-width: 0.8"/>
      </g>
     </g>
     <g id="text_2">
      <!-- $\mathdefault{1}$ -->
      <g transform="translate(83.323208 220.580634) scale(0.12 -0.12)">
       <defs>
        <path id="LinLibertineT-12" d="M 1843 793 
L 1843 3014 
C 1843 3398 1849 3789 1862 3872 
C 1862 3904 1849 3904 1824 3904 
C 1472 3686 1132 3526 569 3264 
C 582 3193 608 3129 665 3091 
C 960 3212 1100 3251 1222 3251 
C 1331 3251 1350 3097 1350 2880 
L 1350 793 
C 1350 262 1177 230 729 211 
C 691 172 691 38 729 0 
C 1043 6 1273 12 1619 12 
C 1926 12 2080 6 2400 0 
C 2438 38 2438 172 2400 211 
C 1952 230 1843 262 1843 793 
z
" transform="scale(0.015625)"/>
       </defs>
       <use xlink:href="#LinLibertineT-12" transform="scale(0.996264)"/>
      </g>
     </g>
    </g>
    <g id="xtick_3">
     <g id="line2d_7">
      <path d="M 124.023103 208.697079 
L 124.023103 6.351777 
" clip-path="url(#pc4059ce219)" style="fill: none; stroke: #b0b0b0; stroke-opacity: 0.3; stroke-width: 0.5; stroke-linecap: square"/>
     </g>
     <g id="line2d_8">
      <g>
       <use xlink:href="#m26b2c0aa1e" x="124.023103" y="208.697079" style="stroke: #000000; stroke-width: 0.8"/>
      </g>
     </g>
     <g id="line2d_9">
      <g>
       <use xlink:href="#mc74e0297e1" x="124.023103" y="6.351777" style="stroke: #000000; stroke-width: 0.8"/>
      </g>
     </g>
     <g id="text_3">
      <!-- $\mathdefault{2}$ -->
      <g transform="translate(121.243526 220.580634) scale(0.12 -0.12)">
       <defs>
        <path id="LinLibertineT-13" d="M 390 2999 
C 390 2866 512 2752 646 2752 
C 755 2752 947 2866 947 3006 
C 947 3057 934 3095 921 3139 
C 908 3184 870 3241 870 3292 
C 870 3451 1036 3679 1504 3679 
C 1734 3679 2060 3521 2060 2910 
C 2060 2501 1913 2168 1536 1783 
L 1062 1314 
C 435 672 332 364 332 -13 
C 332 -13 659 0 864 0 
L 1984 0 
C 2188 0 2483 -13 2483 -13 
C 2566 326 2630 807 2636 1000 
C 2598 1032 2515 1044 2451 1032 
C 2342 576 2233 416 2003 416 
L 864 416 
C 864 724 1305 1160 1337 1192 
L 1984 1815 
C 2348 2168 2624 2450 2624 2936 
C 2624 3622 2060 3904 1542 3904 
C 832 3904 390 3381 390 2999 
z
" transform="scale(0.015625)"/>
       </defs>
       <use xlink:href="#LinLibertineT-13" transform="scale(0.996264)"/>
      </g>
     </g>
    </g>
    <g id="xtick_4">
     <g id="line2d_10">
      <path d="M 161.943421 208.697079 
L 161.943421 6.351777 
" clip-path="url(#pc4059ce219)" style="fill: none; stroke: #b0b0b0; stroke-opacity: 0.3; stroke-width: 0.5; stroke-linecap: square"/>
     </g>
     <g id="line2d_11">
      <g>
       <use xlink:href="#m26b2c0aa1e" x="161.943421" y="208.697079" style="stroke: #000000; stroke-width: 0.8"/>
      </g>
     </g>
     <g id="line2d_12">
      <g>
       <use xlink:href="#mc74e0297e1" x="161.943421" y="6.351777" style="stroke: #000000; stroke-width: 0.8"/>
      </g>
     </g>
     <g id="text_4">
      <!-- $\mathdefault{3}$ -->
      <g transform="translate(159.163843 220.580634) scale(0.12 -0.12)">
       <defs>
        <path id="LinLibertineT-14" d="M 1376 3679 
C 1651 3679 1907 3512 1907 3098 
C 1907 2776 1536 2279 902 2188 
L 934 1984 
C 1043 1996 1158 1996 1241 1996 
C 1606 1996 2080 1895 2080 1176 
C 2080 331 1510 160 1286 160 
C 960 160 902 306 825 420 
C 761 509 678 585 550 585 
C 416 585 281 465 281 363 
C 281 108 819 -64 1203 -64 
C 1964 -64 2643 426 2643 1265 
C 2643 1958 2118 2208 1740 2272 
L 1734 2285 
C 2259 2537 2406 2802 2406 3144 
C 2406 3337 2361 3492 2208 3654 
C 2067 3795 1843 3904 1510 3904 
C 569 3904 300 3286 300 3073 
C 300 2982 364 2853 518 2853 
C 742 2853 768 3066 768 3189 
C 768 3602 1209 3679 1376 3679 
z
" transform="scale(0.015625)"/>
       </defs>
       <use xlink:href="#LinLibertineT-14" transform="scale(0.996264)"/>
      </g>
     </g>
    </g>
    <g id="xtick_5">
     <g id="line2d_13">
      <path d="M 199.863738 208.697079 
L 199.863738 6.351777 
" clip-path="url(#pc4059ce219)" style="fill: none; stroke: #b0b0b0; stroke-opacity: 0.3; stroke-width: 0.5; stroke-linecap: square"/>
     </g>
     <g id="line2d_14">
      <g>
       <use xlink:href="#m26b2c0aa1e" x="199.863738" y="208.697079" style="stroke: #000000; stroke-width: 0.8"/>
      </g>
     </g>
     <g id="line2d_15">
      <g>
       <use xlink:href="#mc74e0297e1" x="199.863738" y="6.351777" style="stroke: #000000; stroke-width: 0.8"/>
      </g>
     </g>
     <g id="text_5">
      <!-- $\mathdefault{4}$ -->
      <g transform="translate(197.084161 220.580634) scale(0.12 -0.12)">
       <defs>
        <path id="LinLibertineT-15" d="M 1734 3246 
L 1734 1408 
L 512 1408 
C 838 1931 1292 2646 1734 3246 
z
M 2752 1408 
L 2220 1408 
L 2220 3272 
C 2220 3591 2220 3840 2233 3891 
L 2220 3904 
L 2016 3904 
C 1971 3904 1939 3865 1913 3833 
C 1510 3342 768 2288 179 1375 
C 198 1279 236 1107 428 1107 
L 1734 1107 
L 1734 522 
C 1734 230 1491 230 1216 211 
C 1177 172 1177 38 1216 0 
C 1420 6 1676 12 1971 12 
C 2220 12 2464 6 2668 0 
C 2707 38 2707 172 2668 211 
C 2355 236 2220 223 2220 522 
L 2220 1107 
L 2662 1107 
C 2752 1107 2848 1228 2848 1305 
C 2848 1369 2822 1408 2752 1408 
z
" transform="scale(0.015625)"/>
       </defs>
       <use xlink:href="#LinLibertineT-15" transform="scale(0.996264)"/>
      </g>
     </g>
    </g>
    <g id="xtick_6">
     <g id="line2d_16">
      <path d="M 237.784056 208.697079 
L 237.784056 6.351777 
" clip-path="url(#pc4059ce219)" style="fill: none; stroke: #b0b0b0; stroke-opacity: 0.3; stroke-width: 0.5; stroke-linecap: square"/>
     </g>
     <g id="line2d_17">
      <g>
       <use xlink:href="#m26b2c0aa1e" x="237.784056" y="208.697079" style="stroke: #000000; stroke-width: 0.8"/>
      </g>
     </g>
     <g id="line2d_18">
      <g>
       <use xlink:href="#mc74e0297e1" x="237.784056" y="6.351777" style="stroke: #000000; stroke-width: 0.8"/>
      </g>
     </g>
     <g id="text_6">
      <!-- $\mathdefault{5}$ -->
      <g transform="translate(235.004478 220.580634) scale(0.12 -0.12)">
       <defs>
        <path id="LinLibertineT-16" d="M 2041 1209 
C 2041 605 1721 160 1337 160 
C 1094 160 1011 318 915 446 
C 832 554 723 649 588 649 
C 467 649 345 541 345 414 
C 345 153 889 -64 1254 -64 
C 2048 -64 2611 522 2611 1323 
C 2611 1940 2182 2496 1465 2496 
C 1190 2496 953 2438 838 2393 
L 966 3468 
C 1203 3443 1408 3411 1715 3411 
C 1907 3404 2124 3417 2387 3443 
L 2489 3878 
L 2444 3904 
C 2080 3872 1734 3840 1395 3840 
C 1158 3840 928 3852 704 3872 
L 486 2023 
C 825 2150 1068 2176 1299 2176 
C 1715 2176 2041 1902 2041 1209 
z
" transform="scale(0.015625)"/>
       </defs>
       <use xlink:href="#LinLibertineT-16" transform="scale(0.996264)"/>
      </g>
     </g>
    </g>
    <g id="xtick_7">
     <g id="line2d_19">
      <path d="M 275.704373 208.697079 
L 275.704373 6.351777 
" clip-path="url(#pc4059ce219)" style="fill: none; stroke: #b0b0b0; stroke-opacity: 0.3; stroke-width: 0.5; stroke-linecap: square"/>
     </g>
     <g id="line2d_20">
      <g>
       <use xlink:href="#m26b2c0aa1e" x="275.704373" y="208.697079" style="stroke: #000000; stroke-width: 0.8"/>
      </g>
     </g>
     <g id="line2d_21">
      <g>
       <use xlink:href="#mc74e0297e1" x="275.704373" y="6.351777" style="stroke: #000000; stroke-width: 0.8"/>
      </g>
     </g>
     <g id="text_7">
      <!-- $\mathdefault{6}$ -->
      <g transform="translate(272.924796 220.580634) scale(0.12 -0.12)">
       <defs>
        <path id="LinLibertineT-17" d="M 864 1965 
C 1075 2105 1286 2112 1395 2112 
C 2022 2112 2163 1499 2163 1180 
C 2163 478 1894 160 1580 160 
C 1177 160 812 376 812 1467 
C 812 1614 825 1780 864 1965 
z
M 921 2195 
C 1094 2775 1504 3419 2355 3737 
C 2355 3814 2329 3871 2278 3904 
C 1632 3712 1235 3444 876 3030 
C 480 2571 281 1990 281 1486 
C 281 191 1017 -64 1510 -64 
C 2348 -64 2694 746 2694 1295 
C 2694 1844 2400 2336 1529 2336 
C 1363 2336 1113 2284 921 2195 
z
" transform="scale(0.015625)"/>
       </defs>
       <use xlink:href="#LinLibertineT-17" transform="scale(0.996264)"/>
      </g>
     </g>
    </g>
    <g id="xtick_8">
     <g id="line2d_22">
      <path d="M 313.624691 208.697079 
L 313.624691 6.351777 
" clip-path="url(#pc4059ce219)" style="fill: none; stroke: #b0b0b0; stroke-opacity: 0.3; stroke-width: 0.5; stroke-linecap: square"/>
     </g>
     <g id="line2d_23">
      <g>
       <use xlink:href="#m26b2c0aa1e" x="313.624691" y="208.697079" style="stroke: #000000; stroke-width: 0.8"/>
      </g>
     </g>
     <g id="line2d_24">
      <g>
       <use xlink:href="#mc74e0297e1" x="313.624691" y="6.351777" style="stroke: #000000; stroke-width: 0.8"/>
      </g>
     </g>
     <g id="text_8">
      <!-- $\mathdefault{7}$ -->
      <g transform="translate(310.845113 220.580634) scale(0.12 -0.12)">
       <defs>
        <path id="LinLibertineT-18" d="M 1088 3423 
L 2233 3423 
C 1734 2189 1228 948 793 -20 
L 844 -64 
L 1280 -45 
C 1644 1037 1996 2093 2713 3833 
L 2611 3904 
C 2502 3878 2361 3840 2118 3840 
L 800 3840 
C 582 3840 595 3904 480 3929 
C 460 3923 454 3923 454 3904 
C 448 3599 377 3217 326 2886 
C 396 2867 460 2861 531 2867 
C 672 3379 883 3423 1088 3423 
z
" transform="scale(0.015625)"/>
       </defs>
       <use xlink:href="#LinLibertineT-18" transform="scale(0.996264)"/>
      </g>
     </g>
    </g>
    <g id="xtick_9">
     <g id="line2d_25">
      <path d="M 351.545008 208.697079 
L 351.545008 6.351777 
" clip-path="url(#pc4059ce219)" style="fill: none; stroke: #b0b0b0; stroke-opacity: 0.3; stroke-width: 0.5; stroke-linecap: square"/>
     </g>
     <g id="line2d_26">
      <g>
       <use xlink:href="#m26b2c0aa1e" x="351.545008" y="208.697079" style="stroke: #000000; stroke-width: 0.8"/>
      </g>
     </g>
     <g id="line2d_27">
      <g>
       <use xlink:href="#mc74e0297e1" x="351.545008" y="6.351777" style="stroke: #000000; stroke-width: 0.8"/>
      </g>
     </g>
     <g id="text_9">
      <!-- $\mathdefault{8}$ -->
      <g transform="translate(348.765431 220.580634) scale(0.12 -0.12)">
       <defs>
        <path id="LinLibertineT-19" d="M 1497 3679 
C 1913 3679 2067 3405 2067 3110 
C 2067 2764 1728 2476 1555 2348 
L 1356 2470 
C 953 2732 908 2944 908 3142 
C 908 3437 1113 3679 1497 3679 
z
M 2515 3104 
C 2515 3565 2156 3904 1529 3904 
C 876 3904 454 3513 454 3020 
C 454 2662 627 2400 1017 2156 
L 1184 2054 
C 998 1958 825 1843 665 1702 
C 403 1472 294 1184 294 934 
C 294 281 755 -64 1433 -64 
C 2272 -64 2681 550 2681 1036 
C 2681 1408 2521 1734 2182 1939 
L 1728 2214 
C 2028 2361 2515 2694 2515 3104 
z
M 1446 160 
C 1158 160 723 358 723 934 
C 723 1126 806 1574 1356 1939 
L 1657 1760 
C 2054 1516 2214 1216 2214 908 
C 2214 268 1734 160 1446 160 
z
" transform="scale(0.015625)"/>
       </defs>
       <use xlink:href="#LinLibertineT-19" transform="scale(0.996264)"/>
      </g>
     </g>
    </g>
    <g id="xtick_10">
     <g id="line2d_28">
      <defs>
       <path id="mda3601ef06" d="M 0 0 
L 0 -2.5 
" style="stroke: #000000; stroke-width: 0.4"/>
      </defs>
      <g>
       <use xlink:href="#mda3601ef06" x="40.598405" y="208.697079" style="stroke: #000000; stroke-width: 0.4"/>
      </g>
     </g>
     <g id="line2d_29">
      <defs>
       <path id="md1d3a7c7c4" d="M 0 0 
L 0 2.5 
" style="stroke: #000000; stroke-width: 0.4"/>
      </defs>
      <g>
       <use xlink:href="#md1d3a7c7c4" x="40.598405" y="6.351777" style="stroke: #000000; stroke-width: 0.4"/>
      </g>
     </g>
    </g>
    <g id="xtick_11">
     <g id="line2d_30">
      <g>
       <use xlink:href="#mda3601ef06" x="55.766532" y="208.697079" style="stroke: #000000; stroke-width: 0.4"/>
      </g>
     </g>
     <g id="line2d_31">
      <g>
       <use xlink:href="#md1d3a7c7c4" x="55.766532" y="6.351777" style="stroke: #000000; stroke-width: 0.4"/>
      </g>
     </g>
    </g>
    <g id="xtick_12">
     <g id="line2d_32">
      <g>
       <use xlink:href="#mda3601ef06" x="63.350595" y="208.697079" style="stroke: #000000; stroke-width: 0.4"/>
      </g>
     </g>
     <g id="line2d_33">
      <g>
       <use xlink:href="#md1d3a7c7c4" x="63.350595" y="6.351777" style="stroke: #000000; stroke-width: 0.4"/>
      </g>
     </g>
    </g>
    <g id="xtick_13">
     <g id="line2d_34">
      <g>
       <use xlink:href="#mda3601ef06" x="70.934659" y="208.697079" style="stroke: #000000; stroke-width: 0.4"/>
      </g>
     </g>
     <g id="line2d_35">
      <g>
       <use xlink:href="#md1d3a7c7c4" x="70.934659" y="6.351777" style="stroke: #000000; stroke-width: 0.4"/>
      </g>
     </g>
    </g>
    <g id="xtick_14">
     <g id="line2d_36">
      <g>
       <use xlink:href="#mda3601ef06" x="78.518722" y="208.697079" style="stroke: #000000; stroke-width: 0.4"/>
      </g>
     </g>
     <g id="line2d_37">
      <g>
       <use xlink:href="#md1d3a7c7c4" x="78.518722" y="6.351777" style="stroke: #000000; stroke-width: 0.4"/>
      </g>
     </g>
    </g>
    <g id="xtick_15">
     <g id="line2d_38">
      <g>
       <use xlink:href="#mda3601ef06" x="93.686849" y="208.697079" style="stroke: #000000; stroke-width: 0.4"/>
      </g>
     </g>
     <g id="line2d_39">
      <g>
       <use xlink:href="#md1d3a7c7c4" x="93.686849" y="6.351777" style="stroke: #000000; stroke-width: 0.4"/>
      </g>
     </g>
    </g>
    <g id="xtick_16">
     <g id="line2d_40">
      <g>
       <use xlink:href="#mda3601ef06" x="101.270913" y="208.697079" style="stroke: #000000; stroke-width: 0.4"/>
      </g>
     </g>
     <g id="line2d_41">
      <g>
       <use xlink:href="#md1d3a7c7c4" x="101.270913" y="6.351777" style="stroke: #000000; stroke-width: 0.4"/>
      </g>
     </g>
    </g>
    <g id="xtick_17">
     <g id="line2d_42">
      <g>
       <use xlink:href="#mda3601ef06" x="108.854976" y="208.697079" style="stroke: #000000; stroke-width: 0.4"/>
      </g>
     </g>
     <g id="line2d_43">
      <g>
       <use xlink:href="#md1d3a7c7c4" x="108.854976" y="6.351777" style="stroke: #000000; stroke-width: 0.4"/>
      </g>
     </g>
    </g>
    <g id="xtick_18">
     <g id="line2d_44">
      <g>
       <use xlink:href="#mda3601ef06" x="116.43904" y="208.697079" style="stroke: #000000; stroke-width: 0.4"/>
      </g>
     </g>
     <g id="line2d_45">
      <g>
       <use xlink:href="#md1d3a7c7c4" x="116.43904" y="6.351777" style="stroke: #000000; stroke-width: 0.4"/>
      </g>
     </g>
    </g>
    <g id="xtick_19">
     <g id="line2d_46">
      <g>
       <use xlink:href="#mda3601ef06" x="131.607167" y="208.697079" style="stroke: #000000; stroke-width: 0.4"/>
      </g>
     </g>
     <g id="line2d_47">
      <g>
       <use xlink:href="#md1d3a7c7c4" x="131.607167" y="6.351777" style="stroke: #000000; stroke-width: 0.4"/>
      </g>
     </g>
    </g>
    <g id="xtick_20">
     <g id="line2d_48">
      <g>
       <use xlink:href="#mda3601ef06" x="139.19123" y="208.697079" style="stroke: #000000; stroke-width: 0.4"/>
      </g>
     </g>
     <g id="line2d_49">
      <g>
       <use xlink:href="#md1d3a7c7c4" x="139.19123" y="6.351777" style="stroke: #000000; stroke-width: 0.4"/>
      </g>
     </g>
    </g>
    <g id="xtick_21">
     <g id="line2d_50">
      <g>
       <use xlink:href="#mda3601ef06" x="146.775294" y="208.697079" style="stroke: #000000; stroke-width: 0.4"/>
      </g>
     </g>
     <g id="line2d_51">
      <g>
       <use xlink:href="#md1d3a7c7c4" x="146.775294" y="6.351777" style="stroke: #000000; stroke-width: 0.4"/>
      </g>
     </g>
    </g>
    <g id="xtick_22">
     <g id="line2d_52">
      <g>
       <use xlink:href="#mda3601ef06" x="154.359357" y="208.697079" style="stroke: #000000; stroke-width: 0.4"/>
      </g>
     </g>
     <g id="line2d_53">
      <g>
       <use xlink:href="#md1d3a7c7c4" x="154.359357" y="6.351777" style="stroke: #000000; stroke-width: 0.4"/>
      </g>
     </g>
    </g>
    <g id="xtick_23">
     <g id="line2d_54">
      <g>
       <use xlink:href="#mda3601ef06" x="169.527484" y="208.697079" style="stroke: #000000; stroke-width: 0.4"/>
      </g>
     </g>
     <g id="line2d_55">
      <g>
       <use xlink:href="#md1d3a7c7c4" x="169.527484" y="6.351777" style="stroke: #000000; stroke-width: 0.4"/>
      </g>
     </g>
    </g>
    <g id="xtick_24">
     <g id="line2d_56">
      <g>
       <use xlink:href="#mda3601ef06" x="177.111548" y="208.697079" style="stroke: #000000; stroke-width: 0.4"/>
      </g>
     </g>
     <g id="line2d_57">
      <g>
       <use xlink:href="#md1d3a7c7c4" x="177.111548" y="6.351777" style="stroke: #000000; stroke-width: 0.4"/>
      </g>
     </g>
    </g>
    <g id="xtick_25">
     <g id="line2d_58">
      <g>
       <use xlink:href="#mda3601ef06" x="184.695611" y="208.697079" style="stroke: #000000; stroke-width: 0.4"/>
      </g>
     </g>
     <g id="line2d_59">
      <g>
       <use xlink:href="#md1d3a7c7c4" x="184.695611" y="6.351777" style="stroke: #000000; stroke-width: 0.4"/>
      </g>
     </g>
    </g>
    <g id="xtick_26">
     <g id="line2d_60">
      <g>
       <use xlink:href="#mda3601ef06" x="192.279675" y="208.697079" style="stroke: #000000; stroke-width: 0.4"/>
      </g>
     </g>
     <g id="line2d_61">
      <g>
       <use xlink:href="#md1d3a7c7c4" x="192.279675" y="6.351777" style="stroke: #000000; stroke-width: 0.4"/>
      </g>
     </g>
    </g>
    <g id="xtick_27">
     <g id="line2d_62">
      <g>
       <use xlink:href="#mda3601ef06" x="207.447802" y="208.697079" style="stroke: #000000; stroke-width: 0.4"/>
      </g>
     </g>
     <g id="line2d_63">
      <g>
       <use xlink:href="#md1d3a7c7c4" x="207.447802" y="6.351777" style="stroke: #000000; stroke-width: 0.4"/>
      </g>
     </g>
    </g>
    <g id="xtick_28">
     <g id="line2d_64">
      <g>
       <use xlink:href="#mda3601ef06" x="215.031865" y="208.697079" style="stroke: #000000; stroke-width: 0.4"/>
      </g>
     </g>
     <g id="line2d_65">
      <g>
       <use xlink:href="#md1d3a7c7c4" x="215.031865" y="6.351777" style="stroke: #000000; stroke-width: 0.4"/>
      </g>
     </g>
    </g>
    <g id="xtick_29">
     <g id="line2d_66">
      <g>
       <use xlink:href="#mda3601ef06" x="222.615929" y="208.697079" style="stroke: #000000; stroke-width: 0.4"/>
      </g>
     </g>
     <g id="line2d_67">
      <g>
       <use xlink:href="#md1d3a7c7c4" x="222.615929" y="6.351777" style="stroke: #000000; stroke-width: 0.4"/>
      </g>
     </g>
    </g>
    <g id="xtick_30">
     <g id="line2d_68">
      <g>
       <use xlink:href="#mda3601ef06" x="230.199992" y="208.697079" style="stroke: #000000; stroke-width: 0.4"/>
      </g>
     </g>
     <g id="line2d_69">
      <g>
       <use xlink:href="#md1d3a7c7c4" x="230.199992" y="6.351777" style="stroke: #000000; stroke-width: 0.4"/>
      </g>
     </g>
    </g>
    <g id="xtick_31">
     <g id="line2d_70">
      <g>
       <use xlink:href="#mda3601ef06" x="245.368119" y="208.697079" style="stroke: #000000; stroke-width: 0.4"/>
      </g>
     </g>
     <g id="line2d_71">
      <g>
       <use xlink:href="#md1d3a7c7c4" x="245.368119" y="6.351777" style="stroke: #000000; stroke-width: 0.4"/>
      </g>
     </g>
    </g>
    <g id="xtick_32">
     <g id="line2d_72">
      <g>
       <use xlink:href="#mda3601ef06" x="252.952183" y="208.697079" style="stroke: #000000; stroke-width: 0.4"/>
      </g>
     </g>
     <g id="line2d_73">
      <g>
       <use xlink:href="#md1d3a7c7c4" x="252.952183" y="6.351777" style="stroke: #000000; stroke-width: 0.4"/>
      </g>
     </g>
    </g>
    <g id="xtick_33">
     <g id="line2d_74">
      <g>
       <use xlink:href="#mda3601ef06" x="260.536246" y="208.697079" style="stroke: #000000; stroke-width: 0.4"/>
      </g>
     </g>
     <g id="line2d_75">
      <g>
       <use xlink:href="#md1d3a7c7c4" x="260.536246" y="6.351777" style="stroke: #000000; stroke-width: 0.4"/>
      </g>
     </g>
    </g>
    <g id="xtick_34">
     <g id="line2d_76">
      <g>
       <use xlink:href="#mda3601ef06" x="268.12031" y="208.697079" style="stroke: #000000; stroke-width: 0.4"/>
      </g>
     </g>
     <g id="line2d_77">
      <g>
       <use xlink:href="#md1d3a7c7c4" x="268.12031" y="6.351777" style="stroke: #000000; stroke-width: 0.4"/>
      </g>
     </g>
    </g>
    <g id="xtick_35">
     <g id="line2d_78">
      <g>
       <use xlink:href="#mda3601ef06" x="283.288437" y="208.697079" style="stroke: #000000; stroke-width: 0.4"/>
      </g>
     </g>
     <g id="line2d_79">
      <g>
       <use xlink:href="#md1d3a7c7c4" x="283.288437" y="6.351777" style="stroke: #000000; stroke-width: 0.4"/>
      </g>
     </g>
    </g>
    <g id="xtick_36">
     <g id="line2d_80">
      <g>
       <use xlink:href="#mda3601ef06" x="290.8725" y="208.697079" style="stroke: #000000; stroke-width: 0.4"/>
      </g>
     </g>
     <g id="line2d_81">
      <g>
       <use xlink:href="#md1d3a7c7c4" x="290.8725" y="6.351777" style="stroke: #000000; stroke-width: 0.4"/>
      </g>
     </g>
    </g>
    <g id="xtick_37">
     <g id="line2d_82">
      <g>
       <use xlink:href="#mda3601ef06" x="298.456564" y="208.697079" style="stroke: #000000; stroke-width: 0.4"/>
      </g>
     </g>
     <g id="line2d_83">
      <g>
       <use xlink:href="#md1d3a7c7c4" x="298.456564" y="6.351777" style="stroke: #000000; stroke-width: 0.4"/>
      </g>
     </g>
    </g>
    <g id="xtick_38">
     <g id="line2d_84">
      <g>
       <use xlink:href="#mda3601ef06" x="306.040627" y="208.697079" style="stroke: #000000; stroke-width: 0.4"/>
      </g>
     </g>
     <g id="line2d_85">
      <g>
       <use xlink:href="#md1d3a7c7c4" x="306.040627" y="6.351777" style="stroke: #000000; stroke-width: 0.4"/>
      </g>
     </g>
    </g>
    <g id="xtick_39">
     <g id="line2d_86">
      <g>
       <use xlink:href="#mda3601ef06" x="321.208754" y="208.697079" style="stroke: #000000; stroke-width: 0.4"/>
      </g>
     </g>
     <g id="line2d_87">
      <g>
       <use xlink:href="#md1d3a7c7c4" x="321.208754" y="6.351777" style="stroke: #000000; stroke-width: 0.4"/>
      </g>
     </g>
    </g>
    <g id="xtick_40">
     <g id="line2d_88">
      <g>
       <use xlink:href="#mda3601ef06" x="328.792818" y="208.697079" style="stroke: #000000; stroke-width: 0.4"/>
      </g>
     </g>
     <g id="line2d_89">
      <g>
       <use xlink:href="#md1d3a7c7c4" x="328.792818" y="6.351777" style="stroke: #000000; stroke-width: 0.4"/>
      </g>
     </g>
    </g>
    <g id="xtick_41">
     <g id="line2d_90">
      <g>
       <use xlink:href="#mda3601ef06" x="336.376881" y="208.697079" style="stroke: #000000; stroke-width: 0.4"/>
      </g>
     </g>
     <g id="line2d_91">
      <g>
       <use xlink:href="#md1d3a7c7c4" x="336.376881" y="6.351777" style="stroke: #000000; stroke-width: 0.4"/>
      </g>
     </g>
    </g>
    <g id="xtick_42">
     <g id="line2d_92">
      <g>
       <use xlink:href="#mda3601ef06" x="343.960945" y="208.697079" style="stroke: #000000; stroke-width: 0.4"/>
      </g>
     </g>
     <g id="line2d_93">
      <g>
       <use xlink:href="#md1d3a7c7c4" x="343.960945" y="6.351777" style="stroke: #000000; stroke-width: 0.4"/>
      </g>
     </g>
    </g>
    <g id="xtick_43">
     <g id="line2d_94">
      <g>
       <use xlink:href="#mda3601ef06" x="359.129072" y="208.697079" style="stroke: #000000; stroke-width: 0.4"/>
      </g>
     </g>
     <g id="line2d_95">
      <g>
       <use xlink:href="#md1d3a7c7c4" x="359.129072" y="6.351777" style="stroke: #000000; stroke-width: 0.4"/>
      </g>
     </g>
    </g>
    <g id="text_10">
     <!-- Focusing parameter $\xi$ -->
     <g transform="translate(149.689089 237.749733) scale(0.12 -0.12)">
      <defs>
       <path id="LinLibertineT-27" d="M 1811 2112 
C 2355 2112 2374 1962 2393 1669 
C 2432 1630 2566 1630 2604 1669 
C 2598 1832 2592 2020 2592 2240 
C 2592 2456 2598 2621 2604 2786 
C 2566 2824 2432 2824 2393 2786 
C 2374 2437 2355 2355 1811 2355 
L 1216 2355 
L 1216 3497 
C 1216 3840 1292 3903 1574 3903 
L 1862 3903 
C 2540 3903 2700 3650 2841 3212 
C 2918 3212 2988 3224 3040 3243 
C 3008 3504 2912 4115 2899 4166 
C 2899 4179 2892 4185 2873 4185 
C 2764 4166 2732 4160 2572 4160 
L 940 4160 
C 736 4147 371 4153 115 4160 
C 76 4121 76 3987 115 3948 
C 563 3929 672 3898 672 3375 
L 672 803 
C 672 263 563 230 115 211 
C 76 172 76 38 115 0 
C 339 6 659 12 947 12 
C 1235 12 1548 6 1772 0 
C 1811 38 1811 172 1772 211 
C 1324 230 1216 263 1216 803 
L 1216 2112 
L 1811 2112 
z
" transform="scale(0.015625)"/>
       <path id="LinLibertineT-50" d="M 262 1315 
C 262 660 697 -64 1606 -64 
C 2016 -64 2329 83 2547 294 
C 2835 577 2963 981 2963 1372 
C 2963 2040 2598 2816 1619 2816 
C 1196 2816 851 2643 614 2367 
C 384 2091 262 1719 262 1315 
z
M 1523 2591 
C 2073 2591 2412 2091 2412 1167 
C 2412 358 1996 160 1696 160 
C 1030 160 812 968 812 1462 
C 812 2020 947 2591 1523 2591 
z
" transform="scale(0.015625)"/>
       <path id="LinLibertineT-44" d="M 2547 583 
C 2521 641 2470 666 2412 673 
C 2195 390 1920 249 1644 249 
C 1177 249 787 724 787 1475 
C 787 2181 1094 2604 1516 2604 
C 1894 2604 1945 2380 1971 2155 
C 1990 1982 2080 1924 2214 1924 
C 2348 1924 2528 2007 2528 2206 
C 2528 2559 2163 2816 1548 2816 
C 915 2816 236 2245 236 1334 
C 236 506 697 -64 1504 -64 
C 1888 -64 2227 57 2547 583 
z
" transform="scale(0.015625)"/>
       <path id="LinLibertineT-56" d="M 1388 -64 
C 1638 -64 1939 64 2252 319 
C 2284 345 2342 358 2348 313 
C 2368 153 2419 -64 2419 -64 
C 2470 -84 2502 -77 2540 -64 
C 2681 51 2905 147 3296 192 
C 3334 230 3334 326 3296 364 
C 2886 396 2828 517 2828 830 
L 2828 2055 
C 2828 2247 2854 2713 2854 2713 
C 2854 2732 2835 2752 2803 2752 
C 2771 2745 2675 2739 2579 2739 
C 2374 2739 2144 2745 1926 2752 
C 1888 2713 1888 2579 1926 2540 
C 2240 2521 2323 2444 2323 2023 
L 2323 792 
C 2323 670 2310 619 2220 543 
C 1984 338 1740 236 1580 236 
C 1388 236 1068 326 1068 894 
L 1068 2055 
C 1068 2247 1094 2713 1094 2713 
C 1094 2732 1075 2752 1043 2752 
C 1011 2745 915 2739 819 2739 
C 614 2739 384 2745 166 2752 
C 128 2713 128 2579 166 2540 
C 473 2515 563 2444 563 2030 
L 563 804 
C 563 364 755 -64 1388 -64 
z
" transform="scale(0.015625)"/>
       <path id="LinLibertineT-54" d="M 307 885 
C 332 570 352 269 352 0 
C 416 12 480 19 512 19 
C 556 19 595 19 640 6 
C 812 -39 985 -64 1222 -64 
C 1580 -64 2240 108 2240 743 
C 2240 1180 1926 1437 1491 1597 
C 1107 1745 851 1841 851 2194 
C 851 2457 1081 2604 1299 2604 
C 1440 2604 1811 2553 1894 2008 
C 1932 1969 2060 1976 2099 2014 
C 2118 2245 2131 2482 2137 2694 
C 1939 2726 1632 2816 1299 2816 
C 825 2816 396 2508 396 2097 
C 396 1629 608 1430 1100 1225 
C 1632 1007 1753 872 1753 596 
C 1753 281 1446 147 1209 147 
C 960 147 819 230 755 301 
C 614 448 544 731 505 891 
C 467 930 345 923 307 885 
z
" transform="scale(0.015625)"/>
       <path id="LinLibertineT-4a" d="M 576 3852 
C 576 3686 729 3519 883 3519 
C 1062 3519 1216 3692 1216 3827 
C 1216 3980 1081 4160 908 4160 
C 755 4160 576 4006 576 3852 
z
M 1158 785 
L 1158 2040 
C 1158 2356 1184 2769 1184 2769 
C 1184 2796 1152 2816 1100 2816 
C 921 2743 665 2683 224 2624 
C 211 2585 224 2483 236 2444 
C 588 2413 652 2375 652 2015 
L 652 785 
C 652 261 582 242 192 211 
C 153 172 153 38 192 0 
C 403 6 652 12 908 12 
C 1164 12 1408 6 1619 0 
C 1657 38 1657 172 1619 211 
C 1228 236 1158 261 1158 785 
z
" transform="scale(0.015625)"/>
       <path id="LinLibertineT-4f" d="M 1177 2298 
C 1139 2253 1100 2240 1100 2298 
C 1094 2470 1081 2719 1049 2783 
C 1036 2816 1024 2835 972 2835 
C 793 2764 627 2707 185 2649 
C 172 2611 185 2508 198 2470 
C 544 2438 614 2406 614 2036 
L 614 791 
C 614 268 550 243 166 211 
C 128 172 128 38 166 0 
C 358 6 614 12 870 12 
C 1126 12 1318 6 1510 0 
C 1548 38 1548 172 1510 211 
C 1184 243 1120 268 1120 791 
L 1120 1838 
C 1120 1972 1177 2049 1228 2106 
C 1472 2342 1760 2483 2009 2483 
C 2137 2483 2272 2400 2348 2253 
C 2412 2125 2425 1953 2425 1761 
L 2425 791 
C 2425 268 2361 243 2028 211 
C 1996 172 1996 38 2028 0 
C 2220 6 2425 12 2681 12 
C 2937 12 3168 6 3360 0 
C 3392 38 3392 172 3360 211 
C 3001 243 2931 268 2931 791 
L 2931 1742 
C 2931 2093 2905 2400 2758 2598 
C 2649 2739 2451 2816 2227 2816 
C 1913 2816 1555 2732 1177 2298 
z
" transform="scale(0.015625)"/>
       <path id="LinLibertineT-48" d="M 2041 1798 
C 2041 1208 1740 1088 1504 1088 
C 966 1088 908 1538 908 1944 
C 908 2389 1068 2617 1420 2617 
C 1824 2617 2041 2325 2041 1798 
z
M 844 -52 
C 915 -71 1017 -84 1100 -84 
C 1299 -84 1478 -64 1568 -64 
C 1888 -64 2156 -71 2342 -176 
C 2592 -319 2668 -411 2668 -581 
C 2668 -1051 1990 -1300 1414 -1300 
C 1184 -1300 646 -1110 646 -666 
C 646 -444 659 -280 844 -52 
z
M 2841 2484 
C 2963 2484 3078 2598 3078 2726 
C 3078 2860 2956 2963 2784 2963 
C 2617 2963 2310 2854 2144 2636 
C 2067 2687 1856 2816 1478 2816 
C 908 2816 384 2433 384 1849 
C 384 1506 537 1310 716 1138 
C 537 985 435 708 435 488 
C 435 256 563 76 729 -7 
C 384 -215 204 -515 204 -796 
C 204 -1364 729 -1536 1222 -1536 
C 2086 -1536 3020 -1117 3020 -411 
C 3020 -202 2924 -39 2739 115 
C 2489 320 2041 326 1804 326 
C 1689 326 1529 313 1376 294 
C 1280 288 1216 281 1184 281 
C 998 281 774 371 774 650 
C 774 779 812 915 889 1023 
C 1043 934 1222 889 1472 889 
C 2035 889 2553 1240 2553 1862 
C 2553 2160 2464 2331 2278 2522 
C 2323 2585 2451 2675 2534 2675 
C 2579 2675 2624 2655 2662 2598 
C 2688 2547 2771 2484 2841 2484 
z
" transform="scale(0.015625)"/>
       <path id="LinLibertineT-51" d="M 1120 2123 
C 1286 2328 1580 2521 1766 2521 
C 2176 2521 2528 2059 2528 1334 
C 2528 808 2342 153 1625 153 
C 1510 153 1286 185 1171 288 
C 1043 403 1017 442 1017 673 
L 1017 1841 
C 1017 1976 1043 2033 1120 2123 
z
M 998 2361 
C 992 2553 979 2719 947 2783 
C 934 2816 921 2835 870 2835 
C 691 2764 524 2707 83 2649 
C 70 2611 83 2508 96 2470 
C 441 2438 512 2405 512 2033 
L 512 -725 
C 512 -1272 441 -1305 51 -1325 
C 12 -1364 12 -1498 51 -1536 
C 275 -1530 512 -1524 768 -1524 
C 1024 -1524 1331 -1530 1542 -1536 
C 1580 -1498 1580 -1364 1542 -1325 
C 1088 -1299 1017 -1272 1017 -725 
L 1017 -13 
C 1017 70 1043 64 1107 32 
C 1267 -26 1459 -64 1664 -64 
C 2022 -64 2342 44 2604 294 
C 2905 589 3078 987 3078 1507 
C 3078 2187 2598 2816 1945 2816 
C 1651 2816 1324 2617 1068 2335 
C 1030 2296 1004 2296 998 2361 
z
" transform="scale(0.015625)"/>
       <path id="LinLibertineT-42" d="M 1875 1494 
L 1875 647 
C 1875 564 1836 519 1785 480 
C 1619 346 1401 198 1222 198 
C 902 198 761 455 761 654 
C 761 942 896 1237 1369 1359 
L 1875 1494 
z
M 1875 307 
C 1913 108 1984 -64 2304 -64 
C 2547 -64 2777 44 2912 172 
C 2899 249 2873 307 2803 345 
C 2758 307 2649 243 2566 243 
C 2380 243 2374 493 2374 788 
L 2374 1731 
C 2374 2643 1875 2816 1408 2816 
C 883 2816 352 2469 352 2104 
C 352 1950 428 1873 576 1873 
C 761 1873 876 2007 876 2091 
C 876 2136 870 2181 857 2206 
C 851 2226 844 2264 844 2335 
C 844 2534 1113 2604 1356 2604 
C 1574 2604 1875 2495 1875 1770 
C 1875 1725 1856 1699 1836 1693 
L 1286 1558 
C 672 1404 230 1064 230 628 
C 230 102 588 -64 1036 -64 
C 1260 -64 1452 -13 1734 204 
L 1862 307 
L 1875 307 
z
" transform="scale(0.015625)"/>
       <path id="LinLibertineT-53" d="M 1126 2298 
C 1113 2553 1107 2719 1075 2783 
C 1062 2816 1049 2835 998 2835 
C 819 2764 652 2707 211 2649 
C 198 2611 211 2508 224 2470 
C 569 2438 640 2406 640 2036 
L 640 791 
C 640 262 563 236 166 211 
C 128 172 128 38 166 0 
C 390 6 640 12 896 12 
C 1152 12 1446 6 1670 0 
C 1708 38 1708 172 1670 211 
C 1222 243 1145 262 1145 791 
L 1145 1679 
C 1145 1844 1222 1991 1299 2106 
C 1369 2208 1516 2419 1593 2419 
C 1651 2419 1708 2406 1760 2336 
C 1804 2272 1881 2189 1990 2189 
C 2144 2189 2291 2349 2291 2508 
C 2291 2630 2176 2816 1907 2816 
C 1606 2816 1344 2534 1196 2285 
C 1158 2215 1126 2266 1126 2298 
z
" transform="scale(0.015625)"/>
       <path id="LinLibertineT-4e" d="M 1088 2298 
C 1081 2489 1068 2719 1036 2783 
C 1024 2816 1011 2835 960 2835 
C 780 2764 614 2707 172 2649 
C 160 2611 172 2508 185 2470 
C 531 2438 601 2406 601 2036 
L 601 791 
C 601 268 518 236 166 211 
C 128 172 128 38 166 0 
C 358 6 601 12 857 12 
C 1113 12 1312 6 1504 0 
C 1542 38 1542 172 1504 211 
C 1177 243 1107 268 1107 791 
L 1107 1838 
C 1107 1972 1164 2049 1216 2106 
C 1472 2355 1708 2483 1907 2483 
C 2150 2483 2329 2329 2329 1902 
L 2329 791 
C 2329 268 2278 236 1932 211 
C 1900 172 1900 38 1932 0 
C 2092 6 2329 12 2585 12 
C 2841 12 3052 6 3212 0 
C 3244 38 3244 172 3212 211 
C 2892 236 2835 268 2835 791 
L 2835 1806 
C 2835 1896 2835 1985 2828 2061 
C 3136 2400 3424 2483 3673 2483 
C 3917 2483 4057 2342 4057 1915 
L 4057 791 
C 4057 268 3993 236 3661 211 
C 3629 172 3629 38 3661 0 
C 3821 6 4057 12 4313 12 
C 4569 12 4793 6 4973 0 
C 5005 38 5005 172 4973 211 
C 4621 236 4563 268 4563 791 
L 4563 1800 
C 4563 2368 4467 2816 3904 2816 
C 3577 2816 3180 2694 2848 2342 
C 2828 2323 2790 2291 2777 2349 
C 2720 2611 2470 2816 2137 2816 
C 1766 2816 1433 2598 1164 2298 
C 1132 2266 1094 2221 1088 2298 
z
" transform="scale(0.015625)"/>
       <path id="LinLibertineT-46" d="M 793 1817 
C 915 2546 1363 2604 1516 2604 
C 1760 2604 2048 2469 2048 1927 
C 2048 1869 2022 1836 1952 1836 
L 793 1817 
z
M 2470 598 
C 2233 352 2048 249 1676 249 
C 1446 249 1177 385 979 714 
C 851 928 774 1225 774 1600 
L 2476 1587 
C 2553 1587 2598 1625 2598 1696 
C 2598 2237 2406 2816 1516 2816 
C 960 2816 236 2282 236 1302 
C 236 940 326 592 537 346 
C 755 89 1056 -64 1516 -64 
C 2003 -64 2348 160 2604 495 
C 2585 559 2547 592 2470 598 
z
" transform="scale(0.015625)"/>
       <path id="LinLibertineT-55" d="M 275 2752 
C 185 2752 160 2675 160 2623 
L 160 2540 
C 160 2508 166 2502 192 2502 
L 569 2502 
L 569 570 
C 569 115 768 -64 1062 -64 
C 1356 -64 1676 76 1926 358 
C 1913 422 1875 461 1811 467 
C 1644 339 1452 288 1286 288 
C 1113 288 1075 480 1075 878 
L 1075 2502 
L 1740 2502 
C 1804 2502 1894 2527 1894 2585 
L 1894 2713 
C 1894 2739 1875 2752 1843 2752 
L 1075 2752 
L 1075 3001 
C 1075 3417 1100 3673 1100 3673 
C 1100 3712 1081 3731 1049 3731 
C 1024 3731 966 3705 908 3673 
C 838 3635 774 3603 691 3584 
C 614 3558 550 3539 550 3494 
C 550 3417 569 3462 569 2752 
L 275 2752 
z
" transform="scale(0.015625)"/>
       <path id="LibertineMathMI-19" d="M 448 737 
C 448 313 691 -64 1529 -64 
C 1862 -64 2080 -172 2080 -412 
C 2080 -671 1792 -1216 1516 -1216 
C 1126 -1216 1132 -1031 876 -1031 
C 736 -1031 614 -1133 614 -1280 
C 614 -1434 793 -1472 1024 -1472 
C 1740 -1472 2272 -860 2272 -267 
C 2272 147 1977 345 1548 345 
C 1017 345 870 596 870 872 
C 870 1212 1081 1778 1504 1970 
C 1670 2015 1843 2048 2035 2048 
C 2118 2060 2214 2048 2297 2048 
C 2534 2048 2643 2227 2643 2342 
C 2643 2425 2585 2476 2502 2476 
C 2329 2465 2080 2272 1760 2272 
C 1619 2272 1497 2362 1497 2582 
C 1497 2808 1561 3099 2380 3699 
C 2995 3892 3168 3983 3168 4171 
C 3168 4249 3129 4288 3046 4288 
C 2899 4288 2681 4145 2304 3860 
C 2105 3776 2003 3776 1868 3776 
C 1740 3776 1593 3873 1593 4132 
C 1593 4164 1593 4275 1657 4467 
L 1600 4467 
C 1452 4403 1331 4275 1235 4132 
L 1235 4061 
C 1235 3686 1414 3584 1734 3584 
C 1856 3584 1913 3590 2054 3628 
C 1497 3254 1081 2937 1081 2504 
C 1081 2297 1209 2208 1408 2131 
C 620 1778 448 1110 448 737 
z
" transform="scale(0.015625)"/>
      </defs>
      <use xlink:href="#LinLibertineT-27" transform="scale(0.996264)"/>
      <use xlink:href="#LinLibertineT-50" transform="translate(48.318759 0) scale(0.996264)"/>
      <use xlink:href="#LinLibertineT-44" transform="translate(99.22781 0) scale(0.996264)"/>
      <use xlink:href="#LinLibertineT-56" transform="translate(141.867943 0) scale(0.996264)"/>
      <use xlink:href="#LinLibertineT-54" transform="translate(194.769568 0) scale(0.996264)"/>
      <use xlink:href="#LinLibertineT-4a" transform="translate(233.623895 0) scale(0.996264)"/>
      <use xlink:href="#LinLibertineT-4f" transform="translate(260.622641 0) scale(0.996264)"/>
      <use xlink:href="#LinLibertineT-48" transform="translate(314.620132 0) scale(0.996264)"/>
      <use xlink:href="#LinLibertineT-51" transform="translate(389.339933 0) scale(0.996264)"/>
      <use xlink:href="#LinLibertineT-42" transform="translate(441.046029 0) scale(0.996264)"/>
      <use xlink:href="#LinLibertineT-53" transform="translate(486.57526 0) scale(0.996264)"/>
      <use xlink:href="#LinLibertineT-42" transform="translate(523.636248 0) scale(0.996264)"/>
      <use xlink:href="#LinLibertineT-4e" transform="translate(569.16548 0) scale(0.996264)"/>
      <use xlink:href="#LinLibertineT-46" transform="translate(647.870321 0) scale(0.996264)"/>
      <use xlink:href="#LinLibertineT-55" transform="translate(692.403274 0) scale(0.996264)"/>
      <use xlink:href="#LinLibertineT-46" transform="translate(723.885208 0) scale(0.996264)"/>
      <use xlink:href="#LinLibertineT-53" transform="translate(768.41816 0) scale(0.996264)"/>
      <use xlink:href="#LibertineMathMI-19" transform="translate(828.891307 0) scale(0.996264)"/>
     </g>
    </g>
   </g>
   <g id="matplotlib.axis_2">
    <g id="ytick_1">
     <g id="line2d_96">
      <path d="M 36.995975 175.113497 
L 366.523534 175.113497 
" clip-path="url(#pc4059ce219)" style="fill: none; stroke: #b0b0b0; stroke-opacity: 0.3; stroke-width: 0.5; stroke-linecap: square"/>
     </g>
     <g id="line2d_97">
      <defs>
       <path id="m9fb07eac5e" d="M 0 0 
L 5 0 
" style="stroke: #000000; stroke-width: 0.8"/>
      </defs>
      <g>
       <use xlink:href="#m9fb07eac5e" x="36.995975" y="175.113497" style="stroke: #000000; stroke-width: 0.8"/>
      </g>
     </g>
     <g id="line2d_98">
      <defs>
       <path id="mca1ffdc30b" d="M 0 0 
L -5 0 
" style="stroke: #000000; stroke-width: 0.8"/>
      </defs>
      <g>
       <use xlink:href="#mca1ffdc30b" x="366.523534" y="175.113497" style="stroke: #000000; stroke-width: 0.8"/>
      </g>
     </g>
     <g id="text_11">
      <!-- $\mathdefault{0.2}$ -->
      <g transform="translate(19.353012 179.305274) scale(0.12 -0.12)">
       <defs>
        <path id="LibertineMathMI-94" d="M 364 275 
C 364 89 518 -64 704 -64 
C 889 -64 1043 89 1043 275 
C 1043 460 889 614 704 614 
C 518 614 364 460 364 275 
z
" transform="scale(0.015625)"/>
       </defs>
       <use xlink:href="#LinLibertineT-11" transform="scale(0.996264)"/>
       <use xlink:href="#LibertineMathMI-94" transform="translate(47.92029 0) scale(0.996264)"/>
       <use xlink:href="#LinLibertineT-13" transform="translate(71.531789 0) scale(0.996264)"/>
      </g>
     </g>
    </g>
    <g id="ytick_2">
     <g id="line2d_99">
      <path d="M 36.995975 141.361153 
L 366.523534 141.361153 
" clip-path="url(#pc4059ce219)" style="fill: none; stroke: #b0b0b0; stroke-opacity: 0.3; stroke-width: 0.5; stroke-linecap: square"/>
     </g>
     <g id="line2d_100">
      <g>
       <use xlink:href="#m9fb07eac5e" x="36.995975" y="141.361153" style="stroke: #000000; stroke-width: 0.8"/>
      </g>
     </g>
     <g id="line2d_101">
      <g>
       <use xlink:href="#mca1ffdc30b" x="366.523534" y="141.361153" style="stroke: #000000; stroke-width: 0.8"/>
      </g>
     </g>
     <g id="text_12">
      <!-- $\mathdefault{0.4}$ -->
      <g transform="translate(19.353012 145.55293) scale(0.12 -0.12)">
       <use xlink:href="#LinLibertineT-11" transform="scale(0.996264)"/>
       <use xlink:href="#LibertineMathMI-94" transform="translate(47.92029 0) scale(0.996264)"/>
       <use xlink:href="#LinLibertineT-15" transform="translate(71.531789 0) scale(0.996264)"/>
      </g>
     </g>
    </g>
    <g id="ytick_3">
     <g id="line2d_102">
      <path d="M 36.995975 107.608809 
L 366.523534 107.608809 
" clip-path="url(#pc4059ce219)" style="fill: none; stroke: #b0b0b0; stroke-opacity: 0.3; stroke-width: 0.5; stroke-linecap: square"/>
     </g>
     <g id="line2d_103">
      <g>
       <use xlink:href="#m9fb07eac5e" x="36.995975" y="107.608809" style="stroke: #000000; stroke-width: 0.8"/>
      </g>
     </g>
     <g id="line2d_104">
      <g>
       <use xlink:href="#mca1ffdc30b" x="366.523534" y="107.608809" style="stroke: #000000; stroke-width: 0.8"/>
      </g>
     </g>
     <g id="text_13">
      <!-- $\mathdefault{0.6}$ -->
      <g transform="translate(19.353012 111.800586) scale(0.12 -0.12)">
       <use xlink:href="#LinLibertineT-11" transform="scale(0.996264)"/>
       <use xlink:href="#LibertineMathMI-94" transform="translate(47.92029 0) scale(0.996264)"/>
       <use xlink:href="#LinLibertineT-17" transform="translate(71.531789 0) scale(0.996264)"/>
      </g>
     </g>
    </g>
    <g id="ytick_4">
     <g id="line2d_105">
      <path d="M 36.995975 73.856465 
L 366.523534 73.856465 
" clip-path="url(#pc4059ce219)" style="fill: none; stroke: #b0b0b0; stroke-opacity: 0.3; stroke-width: 0.5; stroke-linecap: square"/>
     </g>
     <g id="line2d_106">
      <g>
       <use xlink:href="#m9fb07eac5e" x="36.995975" y="73.856465" style="stroke: #000000; stroke-width: 0.8"/>
      </g>
     </g>
     <g id="line2d_107">
      <g>
       <use xlink:href="#mca1ffdc30b" x="366.523534" y="73.856465" style="stroke: #000000; stroke-width: 0.8"/>
      </g>
     </g>
     <g id="text_14">
      <!-- $\mathdefault{0.8}$ -->
      <g transform="translate(19.353012 78.048243) scale(0.12 -0.12)">
       <use xlink:href="#LinLibertineT-11" transform="scale(0.996264)"/>
       <use xlink:href="#LibertineMathMI-94" transform="translate(47.92029 0) scale(0.996264)"/>
       <use xlink:href="#LinLibertineT-19" transform="translate(71.531789 0) scale(0.996264)"/>
      </g>
     </g>
    </g>
    <g id="ytick_5">
     <g id="line2d_108">
      <path d="M 36.995975 40.104121 
L 366.523534 40.104121 
" clip-path="url(#pc4059ce219)" style="fill: none; stroke: #b0b0b0; stroke-opacity: 0.3; stroke-width: 0.5; stroke-linecap: square"/>
     </g>
     <g id="line2d_109">
      <g>
       <use xlink:href="#m9fb07eac5e" x="36.995975" y="40.104121" style="stroke: #000000; stroke-width: 0.8"/>
      </g>
     </g>
     <g id="line2d_110">
      <g>
       <use xlink:href="#mca1ffdc30b" x="366.523534" y="40.104121" style="stroke: #000000; stroke-width: 0.8"/>
      </g>
     </g>
     <g id="text_15">
      <!-- $\mathdefault{1.0}$ -->
      <g transform="translate(19.353012 44.295899) scale(0.12 -0.12)">
       <use xlink:href="#LinLibertineT-12" transform="scale(0.996264)"/>
       <use xlink:href="#LibertineMathMI-94" transform="translate(47.92029 0) scale(0.996264)"/>
       <use xlink:href="#LinLibertineT-11" transform="translate(71.531789 0) scale(0.996264)"/>
      </g>
     </g>
    </g>
    <g id="ytick_6">
     <g id="line2d_111">
      <path d="M 36.995975 6.351777 
L 366.523534 6.351777 
" clip-path="url(#pc4059ce219)" style="fill: none; stroke: #b0b0b0; stroke-opacity: 0.3; stroke-width: 0.5; stroke-linecap: square"/>
     </g>
     <g id="line2d_112">
      <g>
       <use xlink:href="#m9fb07eac5e" x="36.995975" y="6.351777" style="stroke: #000000; stroke-width: 0.8"/>
      </g>
     </g>
     <g id="line2d_113">
      <g>
       <use xlink:href="#mca1ffdc30b" x="366.523534" y="6.351777" style="stroke: #000000; stroke-width: 0.8"/>
      </g>
     </g>
     <g id="text_16">
      <!-- $\mathdefault{1.2}$ -->
      <g transform="translate(19.353012 10.543555) scale(0.12 -0.12)">
       <use xlink:href="#LinLibertineT-12" transform="scale(0.996264)"/>
       <use xlink:href="#LibertineMathMI-94" transform="translate(47.92029 0) scale(0.996264)"/>
       <use xlink:href="#LinLibertineT-13" transform="translate(71.531789 0) scale(0.996264)"/>
      </g>
     </g>
    </g>
    <g id="ytick_7">
     <g id="line2d_114">
      <defs>
       <path id="m6b8a3c58fd" d="M 0 0 
L 2.5 0 
" style="stroke: #000000; stroke-width: 0.4"/>
      </defs>
      <g>
       <use xlink:href="#m6b8a3c58fd" x="36.995975" y="200.427754" style="stroke: #000000; stroke-width: 0.4"/>
      </g>
     </g>
     <g id="line2d_115">
      <defs>
       <path id="m0ef053a54a" d="M 0 0 
L -2.5 0 
" style="stroke: #000000; stroke-width: 0.4"/>
      </defs>
      <g>
       <use xlink:href="#m0ef053a54a" x="366.523534" y="200.427754" style="stroke: #000000; stroke-width: 0.4"/>
      </g>
     </g>
    </g>
    <g id="ytick_8">
     <g id="line2d_116">
      <g>
       <use xlink:href="#m6b8a3c58fd" x="36.995975" y="191.989668" style="stroke: #000000; stroke-width: 0.4"/>
      </g>
     </g>
     <g id="line2d_117">
      <g>
       <use xlink:href="#m0ef053a54a" x="366.523534" y="191.989668" style="stroke: #000000; stroke-width: 0.4"/>
      </g>
     </g>
    </g>
    <g id="ytick_9">
     <g id="line2d_118">
      <g>
       <use xlink:href="#m6b8a3c58fd" x="36.995975" y="183.551583" style="stroke: #000000; stroke-width: 0.4"/>
      </g>
     </g>
     <g id="line2d_119">
      <g>
       <use xlink:href="#m0ef053a54a" x="366.523534" y="183.551583" style="stroke: #000000; stroke-width: 0.4"/>
      </g>
     </g>
    </g>
    <g id="ytick_10">
     <g id="line2d_120">
      <g>
       <use xlink:href="#m6b8a3c58fd" x="36.995975" y="166.675411" style="stroke: #000000; stroke-width: 0.4"/>
      </g>
     </g>
     <g id="line2d_121">
      <g>
       <use xlink:href="#m0ef053a54a" x="366.523534" y="166.675411" style="stroke: #000000; stroke-width: 0.4"/>
      </g>
     </g>
    </g>
    <g id="ytick_11">
     <g id="line2d_122">
      <g>
       <use xlink:href="#m6b8a3c58fd" x="36.995975" y="158.237325" style="stroke: #000000; stroke-width: 0.4"/>
      </g>
     </g>
     <g id="line2d_123">
      <g>
       <use xlink:href="#m0ef053a54a" x="366.523534" y="158.237325" style="stroke: #000000; stroke-width: 0.4"/>
      </g>
     </g>
    </g>
    <g id="ytick_12">
     <g id="line2d_124">
      <g>
       <use xlink:href="#m6b8a3c58fd" x="36.995975" y="149.799239" style="stroke: #000000; stroke-width: 0.4"/>
      </g>
     </g>
     <g id="line2d_125">
      <g>
       <use xlink:href="#m0ef053a54a" x="366.523534" y="149.799239" style="stroke: #000000; stroke-width: 0.4"/>
      </g>
     </g>
    </g>
    <g id="ytick_13">
     <g id="line2d_126">
      <g>
       <use xlink:href="#m6b8a3c58fd" x="36.995975" y="132.923067" style="stroke: #000000; stroke-width: 0.4"/>
      </g>
     </g>
     <g id="line2d_127">
      <g>
       <use xlink:href="#m0ef053a54a" x="366.523534" y="132.923067" style="stroke: #000000; stroke-width: 0.4"/>
      </g>
     </g>
    </g>
    <g id="ytick_14">
     <g id="line2d_128">
      <g>
       <use xlink:href="#m6b8a3c58fd" x="36.995975" y="124.484981" style="stroke: #000000; stroke-width: 0.4"/>
      </g>
     </g>
     <g id="line2d_129">
      <g>
       <use xlink:href="#m0ef053a54a" x="366.523534" y="124.484981" style="stroke: #000000; stroke-width: 0.4"/>
      </g>
     </g>
    </g>
    <g id="ytick_15">
     <g id="line2d_130">
      <g>
       <use xlink:href="#m6b8a3c58fd" x="36.995975" y="116.046895" style="stroke: #000000; stroke-width: 0.4"/>
      </g>
     </g>
     <g id="line2d_131">
      <g>
       <use xlink:href="#m0ef053a54a" x="366.523534" y="116.046895" style="stroke: #000000; stroke-width: 0.4"/>
      </g>
     </g>
    </g>
    <g id="ytick_16">
     <g id="line2d_132">
      <g>
       <use xlink:href="#m6b8a3c58fd" x="36.995975" y="99.170723" style="stroke: #000000; stroke-width: 0.4"/>
      </g>
     </g>
     <g id="line2d_133">
      <g>
       <use xlink:href="#m0ef053a54a" x="366.523534" y="99.170723" style="stroke: #000000; stroke-width: 0.4"/>
      </g>
     </g>
    </g>
    <g id="ytick_17">
     <g id="line2d_134">
      <g>
       <use xlink:href="#m6b8a3c58fd" x="36.995975" y="90.732637" style="stroke: #000000; stroke-width: 0.4"/>
      </g>
     </g>
     <g id="line2d_135">
      <g>
       <use xlink:href="#m0ef053a54a" x="366.523534" y="90.732637" style="stroke: #000000; stroke-width: 0.4"/>
      </g>
     </g>
    </g>
    <g id="ytick_18">
     <g id="line2d_136">
      <g>
       <use xlink:href="#m6b8a3c58fd" x="36.995975" y="82.294551" style="stroke: #000000; stroke-width: 0.4"/>
      </g>
     </g>
     <g id="line2d_137">
      <g>
       <use xlink:href="#m0ef053a54a" x="366.523534" y="82.294551" style="stroke: #000000; stroke-width: 0.4"/>
      </g>
     </g>
    </g>
    <g id="ytick_19">
     <g id="line2d_138">
      <g>
       <use xlink:href="#m6b8a3c58fd" x="36.995975" y="65.418379" style="stroke: #000000; stroke-width: 0.4"/>
      </g>
     </g>
     <g id="line2d_139">
      <g>
       <use xlink:href="#m0ef053a54a" x="366.523534" y="65.418379" style="stroke: #000000; stroke-width: 0.4"/>
      </g>
     </g>
    </g>
    <g id="ytick_20">
     <g id="line2d_140">
      <g>
       <use xlink:href="#m6b8a3c58fd" x="36.995975" y="56.980293" style="stroke: #000000; stroke-width: 0.4"/>
      </g>
     </g>
     <g id="line2d_141">
      <g>
       <use xlink:href="#m0ef053a54a" x="366.523534" y="56.980293" style="stroke: #000000; stroke-width: 0.4"/>
      </g>
     </g>
    </g>
    <g id="ytick_21">
     <g id="line2d_142">
      <g>
       <use xlink:href="#m6b8a3c58fd" x="36.995975" y="48.542207" style="stroke: #000000; stroke-width: 0.4"/>
      </g>
     </g>
     <g id="line2d_143">
      <g>
       <use xlink:href="#m0ef053a54a" x="366.523534" y="48.542207" style="stroke: #000000; stroke-width: 0.4"/>
      </g>
     </g>
    </g>
    <g id="ytick_22">
     <g id="line2d_144">
      <g>
       <use xlink:href="#m6b8a3c58fd" x="36.995975" y="31.666035" style="stroke: #000000; stroke-width: 0.4"/>
      </g>
     </g>
     <g id="line2d_145">
      <g>
       <use xlink:href="#m0ef053a54a" x="366.523534" y="31.666035" style="stroke: #000000; stroke-width: 0.4"/>
      </g>
     </g>
    </g>
    <g id="ytick_23">
     <g id="line2d_146">
      <g>
       <use xlink:href="#m6b8a3c58fd" x="36.995975" y="23.227949" style="stroke: #000000; stroke-width: 0.4"/>
      </g>
     </g>
     <g id="line2d_147">
      <g>
       <use xlink:href="#m0ef053a54a" x="366.523534" y="23.227949" style="stroke: #000000; stroke-width: 0.4"/>
      </g>
     </g>
    </g>
    <g id="ytick_24">
     <g id="line2d_148">
      <g>
       <use xlink:href="#m6b8a3c58fd" x="36.995975" y="14.789863" style="stroke: #000000; stroke-width: 0.4"/>
      </g>
     </g>
     <g id="line2d_149">
      <g>
       <use xlink:href="#m0ef053a54a" x="366.523534" y="14.789863" style="stroke: #000000; stroke-width: 0.4"/>
      </g>
     </g>
    </g>
    <g id="text_17">
     <!-- Conversion efficiency $\eta$ (\%) -->
     <g transform="translate(10.543555 173.908415) rotate(-90) scale(0.12 -0.12)">
      <defs>
       <path id="LinLibertineT-24" d="M 2284 -64 
C 2905 -64 3475 230 3910 802 
C 3878 859 3833 898 3763 898 
C 3309 397 2873 198 2278 198 
C 1414 198 819 1174 819 2112 
C 819 2664 966 3126 1196 3415 
C 1516 3807 1888 3987 2220 3987 
C 3104 3987 3456 3460 3622 2908 
C 3699 2882 3763 2902 3833 2940 
C 3801 3274 3757 3582 3693 3935 
C 3366 3968 3078 4224 2291 4224 
C 1747 4224 1292 4025 915 3679 
C 492 3287 236 2657 236 1990 
C 236 872 908 -64 2284 -64 
z
" transform="scale(0.015625)"/>
       <path id="LinLibertineT-57" d="M 2080 2540 
C 2425 2515 2464 2439 2329 2115 
L 1811 869 
C 1708 622 1676 622 1574 889 
L 1113 2115 
C 998 2420 972 2496 1312 2540 
C 1350 2579 1350 2713 1312 2752 
C 1100 2745 876 2739 665 2739 
C 454 2739 262 2745 70 2752 
C 32 2713 32 2579 70 2540 
C 409 2502 454 2401 582 2077 
L 1401 69 
C 1440 -26 1478 -64 1561 -64 
C 1625 -64 1670 -26 1715 82 
L 2566 2070 
C 2688 2350 2758 2509 3116 2540 
C 3155 2579 3155 2713 3116 2752 
C 2988 2745 2835 2739 2668 2739 
C 2457 2739 2240 2745 2080 2752 
C 2041 2713 2041 2579 2080 2540 
z
" transform="scale(0.015625)"/>
       <path id="LinLibertineT-a59" d="M 2432 3614 
C 2374 3386 2361 3145 2361 3005 
L 2361 2752 
L 1068 2752 
L 1068 2828 
C 1068 3259 1100 3468 1139 3589 
C 1273 4096 1619 4172 1715 4172 
C 1875 4172 2035 4071 2112 3849 
C 2163 3716 2220 3601 2387 3601 
C 2400 3601 2419 3601 2432 3614 
z
M 4224 787 
C 4224 261 4166 230 3846 211 
C 3808 172 3808 38 3846 0 
C 4051 6 4262 12 4480 12 
C 4697 12 4947 6 5177 0 
C 5216 38 5216 172 5177 211 
C 4819 236 4729 261 4729 787 
L 4729 2233 
C 4729 2423 4742 2797 4742 2797 
C 4742 2809 4736 2816 4717 2816 
C 4525 2758 4333 2752 4109 2752 
L 2867 2752 
L 2867 3118 
C 2867 4108 3277 4268 3488 4268 
C 3699 4268 3961 4191 4006 3915 
C 4064 3568 4179 3407 4384 3407 
C 4518 3407 4653 3523 4653 3658 
C 4653 3895 4429 4146 4192 4307 
C 4032 4415 3801 4480 3565 4480 
C 3142 4480 2771 4223 2598 3998 
C 2515 4141 2240 4352 1728 4352 
C 1555 4352 1331 4313 1196 4230 
C 755 3976 588 3525 588 2752 
L 262 2752 
C 147 2752 115 2675 115 2623 
L 115 2540 
C 115 2508 121 2502 147 2502 
L 576 2502 
L 576 791 
C 576 262 505 236 160 211 
C 121 172 121 38 160 0 
C 390 6 620 12 832 12 
C 1049 12 1260 6 1459 0 
C 1497 38 1497 172 1459 211 
C 1164 236 1081 262 1081 791 
L 1081 2502 
L 2361 2502 
L 2361 791 
C 2361 262 2291 236 2009 211 
C 1971 172 1971 38 2009 0 
C 2195 6 2400 12 2617 12 
C 2828 12 3059 6 3277 0 
C 3315 38 3315 172 3277 211 
C 2924 236 2867 262 2867 791 
L 2867 2502 
L 4045 2502 
C 4211 2502 4224 2432 4224 2176 
L 4224 787 
z
" transform="scale(0.015625)"/>
       <path id="LinLibertineT-5a" d="M 1305 -1012 
C 1408 -833 1491 -655 1568 -464 
C 2080 765 2368 1420 2700 2133 
C 2828 2400 2918 2502 3219 2540 
C 3257 2579 3257 2713 3219 2752 
C 3091 2745 2944 2739 2764 2739 
C 2572 2739 2374 2745 2182 2752 
C 2144 2713 2144 2579 2182 2540 
C 2387 2521 2592 2483 2489 2254 
L 1856 796 
C 1811 694 1753 675 1702 803 
L 1132 2127 
C 1017 2394 985 2515 1344 2540 
C 1382 2579 1382 2713 1344 2752 
C 1107 2745 851 2739 620 2739 
C 403 2739 230 2745 102 2752 
C 64 2713 64 2579 102 2540 
C 358 2509 441 2451 608 2063 
L 1331 389 
C 1388 262 1484 -31 1420 -209 
C 1344 -419 1267 -598 1171 -795 
C 1100 -922 1011 -980 851 -980 
C 761 -980 736 -960 665 -960 
C 480 -960 384 -1152 384 -1236 
C 384 -1370 512 -1472 684 -1472 
C 819 -1472 1075 -1421 1305 -1012 
z
" transform="scale(0.015625)"/>
       <path id="LibertineMathMI-12" d="M 3020 1811 
C 3072 2035 3097 2182 3097 2297 
C 3097 2681 2924 2809 2675 2809 
C 2342 2809 2067 2675 1478 1984 
L 1472 1990 
L 1484 2048 
C 1548 2297 1625 2547 1625 2656 
C 1625 2745 1580 2790 1497 2790 
C 1292 2771 992 2726 691 2688 
C 646 2636 659 2566 697 2508 
L 953 2489 
C 1030 2483 1068 2426 1068 2362 
C 1068 2305 1049 2216 1011 2038 
L 652 456 
C 620 329 569 171 569 107 
C 569 -1 640 -64 844 -64 
C 1088 -64 1081 215 1139 456 
L 1382 1511 
C 1785 2048 2137 2432 2368 2432 
C 2502 2432 2592 2393 2592 2195 
C 2592 2105 2572 1977 2521 1760 
L 2118 -20 
C 1958 -756 1849 -1172 1721 -1389 
L 1766 -1505 
L 2272 -1287 
C 2323 -1185 2355 -1057 2393 -903 
C 2451 -653 2508 -346 2585 -20 
L 3020 1811 
z
" transform="scale(0.015625)"/>
       <path id="LinLibertineT-9" d="M 281 1612 
C 281 1324 307 -154 1638 -1306 
C 1702 -1293 1753 -1249 1772 -1197 
C 1561 -954 812 -71 812 1612 
C 812 3296 1568 4179 1772 4409 
C 1753 4473 1708 4518 1638 4525 
C 876 3872 281 2803 281 1612 
z
" transform="scale(0.015625)"/>
       <path id="LinLibertineT-6" d="M 2771 547 
C 2771 922 3033 1465 3347 1465 
C 3437 1465 3616 1407 3616 1071 
C 3616 709 3405 134 3052 134 
C 2931 134 2771 211 2771 547 
z
M 2419 644 
C 2419 302 2624 -64 3014 -64 
C 3545 -64 3827 644 3827 1077 
C 3827 1548 3533 1664 3277 1664 
C 2803 1664 2419 1174 2419 644 
z
M 2329 3328 
C 2214 3328 1990 3328 1644 3494 
C 1580 3571 1395 3654 1216 3654 
C 755 3654 364 3193 364 2651 
C 364 2340 556 1977 953 1977 
C 1491 1977 1772 2676 1772 3066 
C 1772 3123 1766 3180 1753 3225 
C 1875 3155 2118 3091 2265 3091 
C 2457 3091 2707 3116 2950 3212 
L 652 32 
L 870 -64 
L 3494 3577 
L 3289 3680 
C 3091 3408 2598 3328 2329 3328 
z
M 710 2566 
C 710 2920 972 3456 1286 3456 
C 1401 3456 1561 3381 1561 3060 
C 1561 2706 1344 2176 992 2176 
C 876 2176 710 2249 710 2566 
z
" transform="scale(0.015625)"/>
       <path id="LinLibertineT-a" d="M 1625 1612 
C 1625 1900 1600 3379 268 4531 
C 204 4518 153 4473 134 4422 
C 345 4179 1094 3296 1094 1612 
C 1094 -71 339 -954 134 -1185 
C 153 -1249 198 -1293 268 -1300 
C 1030 -647 1625 422 1625 1612 
z
" transform="scale(0.015625)"/>
      </defs>
      <use xlink:href="#LinLibertineT-24" transform="scale(0.996264)"/>
      <use xlink:href="#LinLibertineT-50" transform="translate(64.358646 0) scale(0.996264)"/>
      <use xlink:href="#LinLibertineT-4f" transform="translate(114.570316 0) scale(0.996264)"/>
      <use xlink:href="#LinLibertineT-57" transform="translate(168.567807 0) scale(0.996264)"/>
      <use xlink:href="#LinLibertineT-46" transform="translate(217.285035 0) scale(0.996264)"/>
      <use xlink:href="#LinLibertineT-53" transform="translate(261.817987 0) scale(0.996264)"/>
      <use xlink:href="#LinLibertineT-54" transform="translate(298.878975 0) scale(0.996264)"/>
      <use xlink:href="#LinLibertineT-4a" transform="translate(337.733302 0) scale(0.996264)"/>
      <use xlink:href="#LinLibertineT-50" transform="translate(364.732047 0) scale(0.996264)"/>
      <use xlink:href="#LinLibertineT-4f" transform="translate(414.943717 0) scale(0.996264)"/>
      <use xlink:href="#LinLibertineT-46" transform="translate(493.847808 0) scale(0.996264)"/>
      <use xlink:href="#LinLibertineT-a59" transform="translate(538.380761 0) scale(0.996264)"/>
      <use xlink:href="#LinLibertineT-44" transform="translate(620.971087 0) scale(0.996264)"/>
      <use xlink:href="#LinLibertineT-4a" transform="translate(663.61122 0) scale(0.996264)"/>
      <use xlink:href="#LinLibertineT-46" transform="translate(690.609965 0) scale(0.996264)"/>
      <use xlink:href="#LinLibertineT-4f" transform="translate(735.142918 0) scale(0.996264)"/>
      <use xlink:href="#LinLibertineT-44" transform="translate(789.140409 0) scale(0.996264)"/>
      <use xlink:href="#LinLibertineT-5a" transform="translate(831.780542 0) scale(0.996264)"/>
      <use xlink:href="#LibertineMathMI-12" transform="translate(904.009713 0) scale(0.996264)"/>
      <use xlink:href="#LinLibertineT-9" transform="translate(983.561294 0) scale(0.996264)"/>
      <use xlink:href="#LinLibertineT-6" transform="translate(1013.249995 0) scale(0.996264)"/>
      <use xlink:href="#LinLibertineT-a" transform="translate(1076.71201 0) scale(0.996264)"/>
     </g>
    </g>
   </g>
   <g id="line2d_150">
    <path d="M 51.9745 111.690193 
L 52.976408 105.752714 
L 53.978316 101.190116 
L 54.980224 97.539548 
L 55.982132 94.532864 
L 56.98404 92.001975 
L 57.985948 89.835162 
L 59.989764 86.304659 
L 61.993581 83.53908 
L 63.997397 81.308412 
L 66.001213 79.469774 
L 68.005029 77.928803 
L 70.008845 76.620163 
L 73.014569 74.993535 
L 76.020293 73.67563 
L 79.026017 72.591909 
L 83.03365 71.423272 
L 87.041282 70.493939 
L 92.050822 69.581725 
L 98.062271 68.754731 
L 105.075627 68.052347 
L 113.090891 67.491109 
L 123.109972 67.036202 
L 135.132869 66.72983 
L 150.161489 66.580476 
L 170.19965 66.624536 
L 197.251168 66.928921 
L 236.325582 67.610588 
L 306.459146 69.093169 
L 351.545008 70.090159 
L 351.545008 70.090159 
" clip-path="url(#pc4059ce219)" style="fill: none; stroke: #000000; stroke-width: 1.8; stroke-linecap: square"/>
   </g>
   <g id="line2d_151">
    <path d="M 51.9745 130.062119 
L 52.976408 125.463695 
L 53.978316 121.939969 
L 54.980224 119.126494 
L 55.982132 116.813047 
L 56.98404 114.86828 
L 57.985948 113.20512 
L 59.989764 110.498847 
L 61.993581 108.382036 
L 63.997397 106.676681 
L 66.001213 105.272443 
L 68.005029 104.096577 
L 71.010753 102.654969 
L 74.016477 101.50234 
L 77.022201 100.564385 
L 81.029834 99.56261 
L 86.039374 98.602003 
L 91.048914 97.873211 
L 97.060362 97.215413 
L 105.075627 96.593897 
L 114.092799 96.129659 
L 125.113788 95.781972 
L 140.142409 95.551076 
L 159.178662 95.495774 
L 185.228271 95.65251 
L 224.302685 96.128095 
L 294.436249 97.240287 
L 351.545008 98.205592 
L 351.545008 98.205592 
" clip-path="url(#pc4059ce219)" style="fill: none; stroke-dasharray: 6.66,2.88; stroke-dashoffset: 0; stroke: #808080; stroke-width: 1.8"/>
   </g>
   <g id="line2d_152">
    <path d="M 62.423679 208.697079 
L 62.423679 6.351777 
" clip-path="url(#pc4059ce219)" style="fill: none; stroke-dasharray: 6.66,2.88; stroke-dashoffset: 0; stroke: #808080; stroke-opacity: 0.5; stroke-width: 1.8"/>
   </g>
   <g id="line2d_153">
    <path d="M 80.225192 208.697079 
L 80.225192 6.351777 
" clip-path="url(#pc4059ce219)" style="fill: none; stroke-dasharray: 6.66,2.88; stroke-dashoffset: 0; stroke: #808080; stroke-opacity: 0.5; stroke-width: 1.8"/>
   </g>
   <g id="line2d_154">
    <path d="M 176.353364 208.697079 
L 176.353364 6.351777 
" clip-path="url(#pc4059ce219)" style="fill: none; stroke-dasharray: 6.66,2.88; stroke-dashoffset: 0; stroke: #808080; stroke-opacity: 0.5; stroke-width: 1.8"/>
   </g>
   <g id="patch_3">
    <path d="M 36.995975 208.697079 
L 36.995975 6.351777 
" style="fill: none; stroke: #000000; stroke-width: 0.9; stroke-linejoin: miter; stroke-linecap: square"/>
   </g>
   <g id="patch_4">
    <path d="M 366.523534 208.697079 
L 366.523534 6.351777 
" style="fill: none; stroke: #000000; stroke-width: 0.9; stroke-linejoin: miter; stroke-linecap: square"/>
   </g>
   <g id="patch_5">
    <path d="M 36.995975 208.697079 
L 366.523534 208.697079 
" style="fill: none; stroke: #000000; stroke-width: 0.9; stroke-linejoin: miter; stroke-linecap: square"/>
   </g>
   <g id="patch_6">
    <path d="M 36.995975 6.351777 
L 366.523534 6.351777 
" style="fill: none; stroke: #000000; stroke-width: 0.9; stroke-linejoin: miter; stroke-linecap: square"/>
   </g>
   <g id="text_18">
    <g id="patch_7">
     <path d="M 69.448228 196.804903 
L 69.448228 142.732901 
L 55.399129 142.732901 
L 55.399129 196.804903 
z
" style="fill: #ffffff"/>
    </g>
    <!-- w = 60 µm -->
    <g style="fill: #808080" transform="translate(65.222684 195.364903) rotate(-90) scale(0.12 -0.12)">
     <defs>
      <path id="LinLibertineT-58" d="M 1299 2540 
C 1337 2579 1337 2713 1299 2752 
C 1107 2745 883 2739 652 2739 
C 409 2739 236 2745 70 2752 
C 32 2713 32 2579 70 2540 
C 371 2509 441 2445 576 2115 
L 1414 63 
C 1452 -26 1504 -64 1568 -64 
C 1625 -64 1676 -26 1721 75 
L 2368 1638 
L 3027 63 
C 3065 -26 3116 -64 3180 -64 
C 3238 -64 3289 -26 3328 69 
L 4166 2083 
C 4269 2343 4377 2521 4704 2540 
C 4742 2579 4742 2713 4704 2752 
C 4576 2745 4435 2739 4243 2739 
C 4051 2739 3782 2745 3590 2752 
C 3552 2713 3552 2579 3590 2540 
C 4070 2515 4006 2331 3917 2108 
L 3379 787 
C 3315 628 3289 628 3238 761 
L 2688 2153 
C 2566 2451 2579 2515 2918 2540 
C 2956 2579 2956 2713 2918 2752 
C 2726 2745 2470 2739 2278 2739 
C 2118 2739 1907 2745 1715 2752 
C 1676 2713 1676 2579 1715 2540 
C 2016 2515 2092 2331 2208 2045 
L 2246 1943 
L 1798 819 
C 1715 609 1702 603 1619 806 
L 1107 2115 
C 985 2420 992 2521 1299 2540 
z
" transform="scale(0.015625)"/>
      <path id="LinLibertineT-1e" d="M 2969 1983 
C 3052 1983 3142 2131 3142 2195 
C 3142 2246 3116 2304 3052 2304 
L 544 2304 
C 467 2304 384 2182 384 2086 
C 384 2035 422 1983 480 1983 
L 2969 1983 
z
M 2969 896 
C 3052 896 3142 1043 3142 1107 
C 3142 1158 3116 1216 3052 1216 
L 544 1216 
C 467 1216 384 1094 384 998 
C 384 947 422 896 480 896 
L 2969 896 
z
" transform="scale(0.015625)"/>
      <path id="LinLibertineT-75" d="M 2176 384 
L 2188 384 
C 2208 204 2310 -64 2700 -64 
C 3033 -64 3264 192 3264 224 
C 3264 268 3212 320 3187 320 
C 3148 320 3129 217 2963 217 
C 2700 217 2694 480 2694 775 
L 2694 2816 
C 2528 2796 2348 2751 2188 2751 
L 2188 685 
C 2041 474 1689 224 1337 224 
C 979 224 870 544 870 942 
L 870 2200 
C 870 2405 851 2816 851 2816 
C 659 2796 448 2751 294 2751 
C 294 2751 364 2245 364 2065 
L 364 859 
C 364 487 422 160 422 -52 
C 422 -465 320 -774 320 -1109 
C 320 -1379 576 -1536 684 -1536 
C 838 -1536 960 -1412 960 -1142 
C 960 -860 742 -400 742 25 
C 742 57 787 83 825 83 
C 902 0 1068 -64 1241 -64 
C 1651 -64 1926 102 2176 384 
z
" transform="scale(0.015625)"/>
     </defs>
     <use xlink:href="#LinLibertineT-58" transform="scale(0.996264)"/>
     <use xlink:href="#LinLibertineT-1e" transform="translate(99.327488 0) scale(0.996264)"/>
     <use xlink:href="#LinLibertineT-17" transform="translate(179.028624 0) scale(0.996264)"/>
     <use xlink:href="#LinLibertineT-11" transform="translate(225.354916 0) scale(0.996264)"/>
     <use xlink:href="#LinLibertineT-75" transform="translate(296.587808 0) scale(0.996264)"/>
     <use xlink:href="#LinLibertineT-4e" transform="translate(347.895435 0) scale(0.996264)"/>
    </g>
   </g>
   <g id="text_19">
    <g id="patch_8">
     <path d="M 87.249742 196.804903 
L 87.249742 142.732901 
L 73.200643 142.732901 
L 73.200643 196.804903 
z
" style="fill: #ffffff"/>
    </g>
    <!-- w = 40 µm -->
    <g style="fill: #808080" transform="translate(83.024198 195.364903) rotate(-90) scale(0.12 -0.12)">
     <use xlink:href="#LinLibertineT-58" transform="scale(0.996264)"/>
     <use xlink:href="#LinLibertineT-1e" transform="translate(99.327488 0) scale(0.996264)"/>
     <use xlink:href="#LinLibertineT-15" transform="translate(179.028624 0) scale(0.996264)"/>
     <use xlink:href="#LinLibertineT-11" transform="translate(225.354916 0) scale(0.996264)"/>
     <use xlink:href="#LinLibertineT-75" transform="translate(296.587808 0) scale(0.996264)"/>
     <use xlink:href="#LinLibertineT-4e" transform="translate(347.895435 0) scale(0.996264)"/>
    </g>
   </g>
   <g id="text_20">
    <g id="patch_9">
     <path d="M 183.377914 196.804903 
L 183.377914 142.732901 
L 169.328814 142.732901 
L 169.328814 196.804903 
z
" style="fill: #ffffff"/>
    </g>
    <!-- w = 20 µm -->
    <g style="fill: #808080" transform="translate(179.152369 195.364903) rotate(-90) scale(0.12 -0.12)">
     <use xlink:href="#LinLibertineT-58" transform="scale(0.996264)"/>
     <use xlink:href="#LinLibertineT-1e" transform="translate(99.327488 0) scale(0.996264)"/>
     <use xlink:href="#LinLibertineT-13" transform="translate(179.028624 0) scale(0.996264)"/>
     <use xlink:href="#LinLibertineT-11" transform="translate(225.354916 0) scale(0.996264)"/>
     <use xlink:href="#LinLibertineT-75" transform="translate(296.587808 0) scale(0.996264)"/>
     <use xlink:href="#LinLibertineT-4e" transform="translate(347.895435 0) scale(0.996264)"/>
    </g>
   </g>
   <g id="legend_1">
    <g id="patch_10">
     <path d="M 268.982888 50.322866 
L 358.123534 50.322866 
Q 360.523534 50.322866 360.523534 47.922866 
L 360.523534 14.751777 
Q 360.523534 12.351777 358.123534 12.351777 
L 268.982888 12.351777 
Q 266.582888 12.351777 266.582888 14.751777 
L 266.582888 47.922866 
Q 266.582888 50.322866 268.982888 50.322866 
z
" style="fill: #ffffff; opacity: 0.8; stroke: #cccccc; stroke-linejoin: miter"/>
    </g>
    <g id="line2d_155">
     <path d="M 271.382888 21.351777 
L 283.382888 21.351777 
L 295.382888 21.351777 
" style="fill: none; stroke: #000000; stroke-width: 1.8; stroke-linecap: square"/>
    </g>
    <g id="text_21">
     <!-- $\alpha_{2\omega} = 0$ -->
     <g transform="translate(304.982888 25.551777) scale(0.12 -0.12)">
      <defs>
       <path id="LibertineMathMI-c" d="M 2688 1222 
L 3763 2790 
C 3686 2790 3584 2758 3494 2758 
C 3405 2758 3302 2790 3212 2790 
L 2694 1881 
L 2694 1888 
L 2694 1945 
C 2694 2508 2553 2841 2118 2841 
C 1574 2841 768 2444 492 1267 
C 448 1081 422 908 422 748 
C 422 249 665 -64 1241 -64 
C 1651 -64 1984 198 2425 832 
L 2419 582 
L 2419 531 
C 2419 128 2528 -64 2745 -64 
C 3001 -64 3187 102 3417 505 
L 3270 563 
C 3123 371 3046 326 2892 326 
C 2764 326 2681 505 2681 832 
L 2681 851 
L 2688 1222 
z
M 2028 2624 
C 2368 2624 2438 2227 2438 1676 
C 2438 1638 2432 1600 2432 1555 
L 2432 1420 
L 2278 1158 
C 1932 544 1593 153 1324 153 
C 1030 153 915 396 915 768 
C 915 1651 1420 2624 2028 2624 
z
" transform="scale(0.015625)"/>
       <path id="LibertineMathMI-22" d="M 4173 1651 
C 4173 2380 3571 2745 3392 2841 
L 3277 2720 
C 3635 2323 3725 1964 3725 1689 
C 3725 1568 3705 1459 3686 1369 
C 3545 748 3334 153 2777 153 
C 2438 153 2329 403 2284 851 
C 2419 1068 2617 1542 2617 1715 
C 2617 1792 2585 1830 2470 1830 
C 2252 1830 2105 1382 2105 979 
C 2105 928 2105 883 2112 832 
C 1830 377 1600 153 1344 153 
C 1024 153 870 320 870 684 
C 870 819 889 992 934 1190 
C 1139 2054 1811 2604 2022 2713 
L 1977 2841 
C 1324 2496 409 1753 409 697 
C 409 128 768 -64 1203 -64 
C 1542 -64 1830 128 2137 608 
C 2195 102 2496 -64 2803 -64 
C 3795 -64 4173 1164 4173 1651 
z
" transform="scale(0.015625)"/>
       <path id="txmiaX-8d" d="M 3673 2112 
L 3673 2470 
L 396 2470 
L 396 2112 
L 3673 2112 
z
M 3673 832 
L 3673 1190 
L 396 1190 
L 396 832 
L 3673 832 
z
" transform="scale(0.015625)"/>
      </defs>
      <use xlink:href="#LibertineMathMI-c" transform="scale(0.996264)"/>
      <use xlink:href="#LinLibertineT-13" transform="translate(56.488121 -14.943915) scale(0.727268)"/>
      <use xlink:href="#LibertineMathMI-22" transform="translate(88.124322 -14.943915) scale(0.727268)"/>
      <use xlink:href="#txmiaX-8d" transform="translate(167.96872 0) scale(0.996264)"/>
      <use xlink:href="#LinLibertineT-11" transform="translate(254.621479 0) scale(0.996264)"/>
     </g>
    </g>
    <g id="line2d_156">
     <path d="M 271.382888 38.537322 
L 283.382888 38.537322 
L 295.382888 38.537322 
" style="fill: none; stroke-dasharray: 6.66,2.88; stroke-dashoffset: 0; stroke: #808080; stroke-width: 1.8"/>
    </g>
    <g id="text_22">
     <!-- $\alpha_{2\omega}=0.14$ -->
     <g transform="translate(304.982888 42.737322) scale(0.12 -0.12)">
      <use xlink:href="#LibertineMathMI-c" transform="scale(0.996264)"/>
      <use xlink:href="#LinLibertineT-13" transform="translate(56.488121 -14.943915) scale(0.727268)"/>
      <use xlink:href="#LibertineMathMI-22" transform="translate(88.124322 -14.943915) scale(0.727268)"/>
      <use xlink:href="#txmiaX-8d" transform="translate(167.96872 0) scale(0.996264)"/>
      <use xlink:href="#LinLibertineT-11" transform="translate(254.621479 0) scale(0.996264)"/>
      <use xlink:href="#LibertineMathMI-94" transform="translate(302.541768 0) scale(0.996264)"/>
      <use xlink:href="#LinLibertineT-12" transform="translate(326.153268 0) scale(0.996264)"/>
      <use xlink:href="#LinLibertineT-15" transform="translate(372.47956 0) scale(0.996264)"/>
     </g>
    </g>
   </g>
  </g>
 </g>
 <defs>
  <clipPath id="pc4059ce219">
   <rect x="36.995975" y="6.351777" width="329.527559" height="202.345301"/>
  </clipPath>
 </defs>
</svg>
