<?xml version="1.0" encoding="utf-8" standalone="no"?>
<!DOCTYPE svg PUBLIC "-//W3C//DTD SVG 1.1//EN"
  "http://www.w3.org/Graphics/SVG/1.1/DTD/svg11.dtd">
<svg xmlns:xlink="http://www.w3.org/1999/xlink" width="365.634968pt" height="239.389581pt" viewBox="0 0 365.634968 239.389581" xmlns="http://www.w3.org/2000/svg" version="1.1">
 <metadata>
  <rdf:RDF xmlns:dc="http://purl.org/dc/elements/1.1/" xmlns:cc="http://creativecommons.org/ns#" xmlns:rdf="http://www.w3.org/1999/02/22-rdf-syntax-ns#">
   <cc:Work>
    <dc:type rdf:resource="http://purl.org/dc/dcmitype/StillImage"/>
    <dc:date>2026-06-26T17:14:52.295094</dc:date>
    <dc:format>image/svg+xml</dc:format>
    <dc:creator>
     <cc:Agent>
      <dc:title>Matplotlib v3.8.4, https://matplotlib.org/</dc:title>
     </cc:Agent>
    </dc:creator>
   </cc:Work>
  </rdf:RDF>
 </metadata>
 <defs>
  <style type="text/css">*{stroke-linejoin: round; stroke-linecap: butt}</style>
 </defs>
 <g id="figure_1">
  <g id="patch_1">
   <path d="M 0 239.389581 
L 365.634968 239.389581 
L 365.634968 0 
L 0 0 
z
" style="fill: #ffffff"/>
  </g>
  <g id="axes_1">
   <g id="patch_2">
    <path d="M 33.947409 204.505301 
L 363.474968 204.505301 
L 363.474968 2.16 
L 33.947409 2.16 
z
" style="fill: #ffffff"/>
   </g>
   <g id="matplotlib.axis_1">
    <g id="xtick_1">
     <g id="line2d_1">
      <defs>
       <path id="m0a1467cb33" d="M 0 0 
L 0 -5 
" style="stroke: #000000; stroke-width: 0.8"/>
      </defs>
      <g>
       <use xlink:href="#m0a1467cb33" x="48.925935" y="204.505301" style="stroke: #000000; stroke-width: 0.8"/>
      </g>
     </g>
     <g id="line2d_2">
      <defs>
       <path id="m5a1fc3128b" d="M 0 0 
L 0 5 
" style="stroke: #000000; stroke-width: 0.8"/>
      </defs>
      <g>
       <use xlink:href="#m5a1fc3128b" x="48.925935" y="2.16" style="stroke: #000000; stroke-width: 0.8"/>
      </g>
     </g>
     <g id="text_1">
      <!-- $\mathdefault{0.0}$ -->
      <g transform="translate(41.854453 216.388856) scale(0.12 -0.12)">
       <defs>
        <path id="LinLibertineT-30" d="M 1485 3680 
C 1594 3680 1696 3641 1773 3571 
C 1971 3405 2144 2919 2144 2061 
C 2144 1472 2125 1069 2035 743 
C 1894 218 1581 160 1466 160 
C 870 160 806 1255 806 1811 
C 806 3386 1197 3680 1485 3680 
z
M 1459 -64 
C 1952 -64 2701 435 2701 1939 
C 2701 2573 2547 3117 2266 3488 
C 2099 3712 1830 3904 1485 3904 
C 851 3904 250 3150 250 1882 
C 250 1196 461 557 813 204 
C 992 26 1210 -64 1459 -64 
z
" transform="scale(0.015625)"/>
        <path id="LibertineMathMI-94" d="M 365 275 
C 365 90 518 -64 704 -64 
C 890 -64 1043 90 1043 275 
C 1043 461 890 614 704 614 
C 518 614 365 461 365 275 
z
" transform="scale(0.015625)"/>
       </defs>
       <use xlink:href="#LinLibertineT-30" transform="scale(0.996264)"/>
       <use xlink:href="#LibertineMathMI-94" transform="translate(47.92029 0) scale(0.996264)"/>
       <use xlink:href="#LinLibertineT-30" transform="translate(71.531789 0) scale(0.996264)"/>
      </g>
     </g>
    </g>
    <g id="xtick_2">
     <g id="line2d_3">
      <g>
       <use xlink:href="#m0a1467cb33" x="108.899995" y="204.505301" style="stroke: #000000; stroke-width: 0.8"/>
      </g>
     </g>
     <g id="line2d_4">
      <g>
       <use xlink:href="#m5a1fc3128b" x="108.899995" y="2.16" style="stroke: #000000; stroke-width: 0.8"/>
      </g>
     </g>
     <g id="text_2">
      <!-- $\mathdefault{0.2}$ -->
      <g transform="translate(101.828514 216.388856) scale(0.12 -0.12)">
       <defs>
        <path id="LinLibertineT-32" d="M 390 2997 
C 390 2863 512 2747 646 2747 
C 755 2747 947 2863 947 3003 
C 947 3054 934 3093 922 3137 
C 909 3182 870 3239 870 3291 
C 870 3450 1037 3680 1504 3680 
C 1734 3680 2061 3521 2061 2908 
C 2061 2500 1914 2169 1536 1786 
L 1062 1320 
C 435 682 333 377 333 0 
C 333 0 659 0 864 0 
L 1984 0 
C 2189 0 2483 0 2483 0 
C 2566 337 2630 813 2637 1004 
C 2598 1036 2515 1048 2451 1036 
C 2342 582 2234 423 2003 423 
L 864 423 
C 864 730 1306 1164 1338 1196 
L 1984 1815 
C 2349 2167 2624 2448 2624 2933 
C 2624 3623 2061 3904 1542 3904 
C 832 3904 390 3380 390 2997 
z
" transform="scale(0.015625)"/>
       </defs>
       <use xlink:href="#LinLibertineT-30" transform="scale(0.996264)"/>
       <use xlink:href="#LibertineMathMI-94" transform="translate(47.92029 0) scale(0.996264)"/>
       <use xlink:href="#LinLibertineT-32" transform="translate(71.531789 0) scale(0.996264)"/>
      </g>
     </g>
    </g>
    <g id="xtick_3">
     <g id="line2d_5">
      <g>
       <use xlink:href="#m0a1467cb33" x="168.874056" y="204.505301" style="stroke: #000000; stroke-width: 0.8"/>
      </g>
     </g>
     <g id="line2d_6">
      <g>
       <use xlink:href="#m5a1fc3128b" x="168.874056" y="2.16" style="stroke: #000000; stroke-width: 0.8"/>
      </g>
     </g>
     <g id="text_3">
      <!-- $\mathdefault{0.4}$ -->
      <g transform="translate(161.802574 216.388856) scale(0.12 -0.12)">
       <defs>
        <path id="LinLibertineT-34" d="M 1734 3251 
L 1734 1408 
L 512 1408 
C 838 1933 1293 2649 1734 3251 
z
M 2752 1408 
L 2221 1408 
L 2221 3281 
C 2221 3602 2221 3852 2234 3904 
L 2221 3904 
L 2016 3904 
C 1971 3904 1939 3866 1914 3834 
C 1510 3342 768 2288 179 1375 
C 198 1278 237 1106 429 1106 
L 1734 1106 
L 1734 509 
C 1734 211 1491 211 1216 211 
C 1178 172 1178 39 1216 0 
C 1421 0 1677 0 1971 0 
C 2221 0 2464 0 2669 0 
C 2707 39 2707 171 2669 210 
C 2355 235 2221 223 2221 521 
L 2221 1106 
L 2662 1106 
C 2752 1106 2848 1228 2848 1305 
C 2848 1369 2822 1408 2752 1408 
z
" transform="scale(0.015625)"/>
       </defs>
       <use xlink:href="#LinLibertineT-30" transform="scale(0.996264)"/>
       <use xlink:href="#LibertineMathMI-94" transform="translate(47.92029 0) scale(0.996264)"/>
       <use xlink:href="#LinLibertineT-34" transform="translate(71.531789 0) scale(0.996264)"/>
      </g>
     </g>
    </g>
    <g id="xtick_4">
     <g id="line2d_7">
      <g>
       <use xlink:href="#m0a1467cb33" x="228.848117" y="204.505301" style="stroke: #000000; stroke-width: 0.8"/>
      </g>
     </g>
     <g id="line2d_8">
      <g>
       <use xlink:href="#m5a1fc3128b" x="228.848117" y="2.16" style="stroke: #000000; stroke-width: 0.8"/>
      </g>
     </g>
     <g id="text_4">
      <!-- $\mathdefault{0.6}$ -->
      <g transform="translate(221.776635 216.388856) scale(0.12 -0.12)">
       <defs>
        <path id="LinLibertineT-36" d="M 864 1971 
C 1075 2112 1286 2112 1395 2112 
C 2022 2112 2163 1500 2163 1181 
C 2163 480 1894 161 1581 161 
C 1178 161 813 378 813 1473 
C 813 1619 826 1786 864 1971 
z
M 922 2202 
C 1094 2786 1504 3433 2355 3754 
C 2355 3831 2330 3889 2278 3921 
C 1632 3728 1235 3459 877 3043 
C 480 2582 282 1999 282 1493 
C 282 193 1018 -64 1510 -64 
C 2349 -64 2694 749 2694 1300 
C 2694 1850 2400 2343 1530 2343 
C 1363 2343 1114 2292 922 2202 
z
" transform="scale(0.015625)"/>
       </defs>
       <use xlink:href="#LinLibertineT-30" transform="scale(0.996264)"/>
       <use xlink:href="#LibertineMathMI-94" transform="translate(47.92029 0) scale(0.996264)"/>
       <use xlink:href="#LinLibertineT-36" transform="translate(71.531789 0) scale(0.996264)"/>
      </g>
     </g>
    </g>
    <g id="xtick_5">
     <g id="line2d_9">
      <g>
       <use xlink:href="#m0a1467cb33" x="288.822177" y="204.505301" style="stroke: #000000; stroke-width: 0.8"/>
      </g>
     </g>
     <g id="line2d_10">
      <g>
       <use xlink:href="#m5a1fc3128b" x="288.822177" y="2.16" style="stroke: #000000; stroke-width: 0.8"/>
      </g>
     </g>
     <g id="text_5">
      <!-- $\mathdefault{0.8}$ -->
      <g transform="translate(281.750696 216.388856) scale(0.12 -0.12)">
       <defs>
        <path id="LinLibertineT-38" d="M 1498 3680 
C 1914 3680 2067 3405 2067 3110 
C 2067 2765 1728 2477 1555 2349 
L 1357 2471 
C 954 2733 909 2944 909 3142 
C 909 3437 1114 3680 1498 3680 
z
M 2515 3104 
C 2515 3565 2157 3904 1530 3904 
C 877 3904 454 3514 454 3020 
C 454 2662 627 2399 1018 2156 
L 1184 2054 
C 998 1958 826 1843 666 1702 
C 403 1471 294 1184 294 934 
C 294 281 755 -64 1434 -64 
C 2272 -64 2682 551 2682 1037 
C 2682 1408 2522 1734 2182 1939 
L 1728 2214 
C 2029 2362 2515 2694 2515 3104 
z
M 1446 160 
C 1158 160 723 359 723 934 
C 723 1127 806 1575 1357 1939 
L 1658 1760 
C 2054 1517 2214 1217 2214 909 
C 2214 269 1734 160 1446 160 
z
" transform="scale(0.015625)"/>
       </defs>
       <use xlink:href="#LinLibertineT-30" transform="scale(0.996264)"/>
       <use xlink:href="#LibertineMathMI-94" transform="translate(47.92029 0) scale(0.996264)"/>
       <use xlink:href="#LinLibertineT-38" transform="translate(71.531789 0) scale(0.996264)"/>
      </g>
     </g>
    </g>
    <g id="xtick_6">
     <g id="line2d_11">
      <g>
       <use xlink:href="#m0a1467cb33" x="348.796238" y="204.505301" style="stroke: #000000; stroke-width: 0.8"/>
      </g>
     </g>
     <g id="line2d_12">
      <g>
       <use xlink:href="#m5a1fc3128b" x="348.796238" y="2.16" style="stroke: #000000; stroke-width: 0.8"/>
      </g>
     </g>
     <g id="text_6">
      <!-- $\mathdefault{1.0}$ -->
      <g transform="translate(341.724757 216.388856) scale(0.12 -0.12)">
       <defs>
        <path id="LinLibertineT-31" d="M 1843 779 
L 1843 3021 
C 1843 3409 1850 3802 1862 3886 
C 1862 3919 1850 3919 1824 3919 
C 1472 3700 1133 3540 570 3277 
C 582 3207 608 3141 666 3103 
C 960 3226 1101 3264 1222 3264 
C 1331 3264 1350 3109 1350 2889 
L 1350 780 
C 1350 243 1178 211 730 211 
C 691 172 691 39 730 0 
C 1043 0 1274 0 1619 0 
C 1926 0 2080 0 2400 0 
C 2438 39 2438 172 2400 211 
C 1952 211 1843 243 1843 779 
z
" transform="scale(0.015625)"/>
       </defs>
       <use xlink:href="#LinLibertineT-31" transform="scale(0.996264)"/>
       <use xlink:href="#LibertineMathMI-94" transform="translate(47.92029 0) scale(0.996264)"/>
       <use xlink:href="#LinLibertineT-30" transform="translate(71.531789 0) scale(0.996264)"/>
      </g>
     </g>
    </g>
    <g id="xtick_7">
     <g id="line2d_13">
      <defs>
       <path id="md6fceb4b8c" d="M 0 0 
L 0 -2.5 
" style="stroke: #000000; stroke-width: 0.4"/>
      </defs>
      <g>
       <use xlink:href="#md6fceb4b8c" x="63.91945" y="204.505301" style="stroke: #000000; stroke-width: 0.4"/>
      </g>
     </g>
     <g id="line2d_14">
      <defs>
       <path id="m0de41ed038" d="M 0 0 
L 0 2.5 
" style="stroke: #000000; stroke-width: 0.4"/>
      </defs>
      <g>
       <use xlink:href="#m0de41ed038" x="63.91945" y="2.16" style="stroke: #000000; stroke-width: 0.4"/>
      </g>
     </g>
    </g>
    <g id="xtick_8">
     <g id="line2d_15">
      <g>
       <use xlink:href="#md6fceb4b8c" x="78.912965" y="204.505301" style="stroke: #000000; stroke-width: 0.4"/>
      </g>
     </g>
     <g id="line2d_16">
      <g>
       <use xlink:href="#m0de41ed038" x="78.912965" y="2.16" style="stroke: #000000; stroke-width: 0.4"/>
      </g>
     </g>
    </g>
    <g id="xtick_9">
     <g id="line2d_17">
      <g>
       <use xlink:href="#md6fceb4b8c" x="93.90648" y="204.505301" style="stroke: #000000; stroke-width: 0.4"/>
      </g>
     </g>
     <g id="line2d_18">
      <g>
       <use xlink:href="#m0de41ed038" x="93.90648" y="2.16" style="stroke: #000000; stroke-width: 0.4"/>
      </g>
     </g>
    </g>
    <g id="xtick_10">
     <g id="line2d_19">
      <g>
       <use xlink:href="#md6fceb4b8c" x="123.89351" y="204.505301" style="stroke: #000000; stroke-width: 0.4"/>
      </g>
     </g>
     <g id="line2d_20">
      <g>
       <use xlink:href="#m0de41ed038" x="123.89351" y="2.16" style="stroke: #000000; stroke-width: 0.4"/>
      </g>
     </g>
    </g>
    <g id="xtick_11">
     <g id="line2d_21">
      <g>
       <use xlink:href="#md6fceb4b8c" x="138.887026" y="204.505301" style="stroke: #000000; stroke-width: 0.4"/>
      </g>
     </g>
     <g id="line2d_22">
      <g>
       <use xlink:href="#m0de41ed038" x="138.887026" y="2.16" style="stroke: #000000; stroke-width: 0.4"/>
      </g>
     </g>
    </g>
    <g id="xtick_12">
     <g id="line2d_23">
      <g>
       <use xlink:href="#md6fceb4b8c" x="153.880541" y="204.505301" style="stroke: #000000; stroke-width: 0.4"/>
      </g>
     </g>
     <g id="line2d_24">
      <g>
       <use xlink:href="#m0de41ed038" x="153.880541" y="2.16" style="stroke: #000000; stroke-width: 0.4"/>
      </g>
     </g>
    </g>
    <g id="xtick_13">
     <g id="line2d_25">
      <g>
       <use xlink:href="#md6fceb4b8c" x="183.867571" y="204.505301" style="stroke: #000000; stroke-width: 0.4"/>
      </g>
     </g>
     <g id="line2d_26">
      <g>
       <use xlink:href="#m0de41ed038" x="183.867571" y="2.16" style="stroke: #000000; stroke-width: 0.4"/>
      </g>
     </g>
    </g>
    <g id="xtick_14">
     <g id="line2d_27">
      <g>
       <use xlink:href="#md6fceb4b8c" x="198.861086" y="204.505301" style="stroke: #000000; stroke-width: 0.4"/>
      </g>
     </g>
     <g id="line2d_28">
      <g>
       <use xlink:href="#m0de41ed038" x="198.861086" y="2.16" style="stroke: #000000; stroke-width: 0.4"/>
      </g>
     </g>
    </g>
    <g id="xtick_15">
     <g id="line2d_29">
      <g>
       <use xlink:href="#md6fceb4b8c" x="213.854602" y="204.505301" style="stroke: #000000; stroke-width: 0.4"/>
      </g>
     </g>
     <g id="line2d_30">
      <g>
       <use xlink:href="#m0de41ed038" x="213.854602" y="2.16" style="stroke: #000000; stroke-width: 0.4"/>
      </g>
     </g>
    </g>
    <g id="xtick_16">
     <g id="line2d_31">
      <g>
       <use xlink:href="#md6fceb4b8c" x="243.841632" y="204.505301" style="stroke: #000000; stroke-width: 0.4"/>
      </g>
     </g>
     <g id="line2d_32">
      <g>
       <use xlink:href="#m0de41ed038" x="243.841632" y="2.16" style="stroke: #000000; stroke-width: 0.4"/>
      </g>
     </g>
    </g>
    <g id="xtick_17">
     <g id="line2d_33">
      <g>
       <use xlink:href="#md6fceb4b8c" x="258.835147" y="204.505301" style="stroke: #000000; stroke-width: 0.4"/>
      </g>
     </g>
     <g id="line2d_34">
      <g>
       <use xlink:href="#m0de41ed038" x="258.835147" y="2.16" style="stroke: #000000; stroke-width: 0.4"/>
      </g>
     </g>
    </g>
    <g id="xtick_18">
     <g id="line2d_35">
      <g>
       <use xlink:href="#md6fceb4b8c" x="273.828662" y="204.505301" style="stroke: #000000; stroke-width: 0.4"/>
      </g>
     </g>
     <g id="line2d_36">
      <g>
       <use xlink:href="#m0de41ed038" x="273.828662" y="2.16" style="stroke: #000000; stroke-width: 0.4"/>
      </g>
     </g>
    </g>
    <g id="xtick_19">
     <g id="line2d_37">
      <g>
       <use xlink:href="#md6fceb4b8c" x="303.815693" y="204.505301" style="stroke: #000000; stroke-width: 0.4"/>
      </g>
     </g>
     <g id="line2d_38">
      <g>
       <use xlink:href="#m0de41ed038" x="303.815693" y="2.16" style="stroke: #000000; stroke-width: 0.4"/>
      </g>
     </g>
    </g>
    <g id="xtick_20">
     <g id="line2d_39">
      <g>
       <use xlink:href="#md6fceb4b8c" x="318.809208" y="204.505301" style="stroke: #000000; stroke-width: 0.4"/>
      </g>
     </g>
     <g id="line2d_40">
      <g>
       <use xlink:href="#m0de41ed038" x="318.809208" y="2.16" style="stroke: #000000; stroke-width: 0.4"/>
      </g>
     </g>
    </g>
    <g id="xtick_21">
     <g id="line2d_41">
      <g>
       <use xlink:href="#md6fceb4b8c" x="333.802723" y="204.505301" style="stroke: #000000; stroke-width: 0.4"/>
      </g>
     </g>
     <g id="line2d_42">
      <g>
       <use xlink:href="#m0de41ed038" x="333.802723" y="2.16" style="stroke: #000000; stroke-width: 0.4"/>
      </g>
     </g>
    </g>
    <g id="text_7">
     <!-- $P/P_{thr} = \epsilon^2$ -->
     <g transform="translate(171.75006 234.444037) scale(0.12 -0.12)">
      <defs>
       <path id="LibertineMathMI-25" d="M 1862 3676 
C 1894 3860 1978 3968 2419 3968 
C 2784 3968 3130 3855 3130 3337 
C 3130 3242 3117 3134 3091 3008 
C 2957 2326 2573 2048 1978 2048 
C 1824 2048 1613 2048 1549 2067 
L 1862 3676 
z
M 736 456 
C 704 276 595 206 346 187 
L 186 174 
C 154 174 134 155 128 123 
L 102 0 
L 115 0 
C 339 0 646 0 902 0 
C 1146 0 1453 0 1741 0 
L 1754 12 
L 1779 128 
C 1786 168 1766 192 1741 192 
L 1517 192 
C 1318 192 1229 241 1229 379 
C 1229 405 1229 430 1235 463 
L 1510 1888 
C 1638 1843 1747 1824 1965 1824 
C 3085 1824 3552 2579 3654 3119 
C 3667 3182 3674 3246 3674 3322 
C 3674 3697 3456 4186 2509 4186 
C 2349 4186 1952 4153 1702 4153 
C 1459 4153 1146 4153 922 4153 
L 902 4139 
L 877 3996 
C 870 3977 883 3968 909 3968 
L 1146 3968 
C 1235 3962 1370 3915 1370 3757 
C 1370 3737 1370 3712 1363 3693 
L 736 456 
z
" transform="scale(0.015625)"/>
       <path id="txsys-9d" d="M 397 -1280 
L 730 -1280 
L 2547 4480 
L 2214 4480 
L 397 -1280 
z
" transform="scale(0.015625)"/>
       <path id="LibertineMathMI-43" d="M 1190 2733 
L 851 2733 
C 730 2733 685 2679 672 2625 
C 666 2604 646 2524 646 2510 
C 646 2496 666 2496 685 2496 
L 1133 2496 
L 742 755 
C 698 550 653 352 653 230 
C 653 0 768 -64 966 -64 
C 1254 -64 1677 198 1894 595 
C 1875 678 1830 717 1754 717 
C 1459 384 1344 320 1242 320 
C 1222 320 1158 333 1158 410 
C 1158 467 1178 595 1229 813 
L 1606 2496 
L 2234 2496 
C 2310 2526 2368 2684 2298 2733 
L 1664 2733 
L 1728 3023 
C 1754 3145 1811 3333 1811 3411 
C 1811 3519 1760 3584 1555 3584 
C 1325 3584 1338 3294 1274 3056 
L 1190 2733 
z
" transform="scale(0.015625)"/>
       <path id="LibertineMathMI-11" d="M 1126 461 
L 1369 1523 
C 1772 2048 2188 2426 2418 2426 
C 2552 2426 2642 2387 2642 2189 
C 2642 2099 2629 1978 2578 1760 
L 2335 736 
C 2284 531 2226 269 2226 147 
C 2226 26 2297 -64 2489 -64 
C 2796 -64 3083 154 3378 531 
C 3359 589 3320 640 3231 640 
C 3064 448 2879 320 2815 320 
C 2770 320 2751 352 2751 429 
C 2751 486 2783 627 2821 794 
L 3064 1811 
C 3115 2035 3147 2182 3147 2298 
C 3147 2682 2975 2810 2725 2810 
C 2393 2810 2060 2675 1472 1997 
L 1862 3731 
C 1958 4147 2022 4403 2022 4403 
C 2022 4448 2003 4467 1945 4467 
C 1772 4403 1312 4320 1050 4301 
L 1030 4147 
C 1030 4128 1037 4115 1062 4115 
L 1261 4102 
C 1344 4102 1395 4064 1395 3923 
C 1395 3853 1382 3744 1350 3603 
L 653 461 
C 621 333 570 173 570 109 
C 570 0 627 -64 832 -64 
C 1075 -64 1069 218 1126 461 
z
" transform="scale(0.015625)"/>
       <path id="LibertineMathMI-41" d="M 1414 1828 
L 1466 2052 
C 1523 2303 1574 2527 1574 2636 
C 1574 2732 1523 2796 1440 2796 
C 1235 2796 973 2752 672 2713 
C 627 2662 640 2592 678 2533 
L 934 2514 
C 1011 2507 1050 2450 1050 2386 
C 1050 2328 1050 2239 1005 2058 
L 653 462 
C 621 321 570 212 570 109 
C 570 0 627 -64 813 -64 
C 1037 -64 1043 212 1107 462 
L 1293 1213 
C 1600 1771 1958 2368 2106 2368 
C 2170 2368 2202 2336 2240 2291 
C 2285 2239 2368 2155 2458 2155 
C 2630 2155 2746 2341 2746 2515 
C 2746 2649 2650 2816 2413 2816 
C 2093 2816 1722 2418 1440 1822 
L 1414 1828 
z
" transform="scale(0.015625)"/>
       <path id="txmiaX-3d" d="M 3674 2138 
L 3674 2496 
L 397 2496 
L 397 2138 
L 3674 2138 
z
M 3674 832 
L 3674 1190 
L 397 1190 
L 397 832 
L 3674 832 
z
" transform="scale(0.015625)"/>
       <path id="LibertineMathMI-6e" d="M 2285 2534 
C 2445 2534 2554 2502 2662 2445 
C 2726 2408 2784 2370 2835 2326 
L 2963 2458 
C 2931 2509 2886 2554 2835 2599 
C 2682 2745 2477 2816 2195 2816 
C 1933 2816 1517 2682 1190 2402 
C 864 2121 646 1765 550 1351 
C 518 1210 506 1076 506 955 
C 506 719 557 515 678 331 
C 851 69 1120 -64 1517 -64 
C 1786 -64 2035 13 2259 153 
C 2394 242 2502 325 2592 428 
L 2522 524 
C 2406 434 2285 365 2157 307 
C 2016 249 1882 217 1734 217 
C 1485 217 1318 307 1197 454 
C 1075 601 1018 800 1018 1043 
C 1018 1126 1024 1216 1043 1318 
L 2432 1318 
L 2502 1600 
L 1101 1600 
C 1203 1928 1363 2187 1536 2319 
C 1779 2515 2010 2534 2189 2534 
L 2285 2534 
z
" transform="scale(0.015625)"/>
      </defs>
      <use xlink:href="#LibertineMathMI-25" transform="scale(0.996264)"/>
      <use xlink:href="#txsys-9d" transform="translate(59.12829 0) scale(0.996264)"/>
      <use xlink:href="#LibertineMathMI-25" transform="translate(103.461993 0) scale(0.996264)"/>
      <use xlink:href="#LibertineMathMI-43" transform="translate(153.618967 -16.124242) scale(0.727268)"/>
      <use xlink:href="#LibertineMathMI-11" transform="translate(179.582471 -16.124242) scale(0.727268)"/>
      <use xlink:href="#LibertineMathMI-41" transform="translate(216.964064 -16.124242) scale(0.727268)"/>
      <use xlink:href="#txmiaX-3d" transform="translate(279.063132 0) scale(0.996264)"/>
      <use xlink:href="#LibertineMathMI-6e" transform="translate(362.228983 0) scale(0.996264)"/>
      <use xlink:href="#LinLibertineT-32" transform="translate(411.294909 36.164371) scale(0.727268)"/>
     </g>
    </g>
   </g>
   <g id="matplotlib.axis_2">
    <g id="ytick_1">
     <g id="line2d_43">
      <defs>
       <path id="m0a333bc47c" d="M 0 0 
L 5 0 
" style="stroke: #000000; stroke-width: 0.8"/>
      </defs>
      <g>
       <use xlink:href="#m0a333bc47c" x="33.947409" y="177.706314" style="stroke: #000000; stroke-width: 0.8"/>
      </g>
     </g>
     <g id="line2d_44">
      <defs>
       <path id="m29676a2bba" d="M 0 0 
L -5 0 
" style="stroke: #000000; stroke-width: 0.8"/>
      </defs>
      <g>
       <use xlink:href="#m29676a2bba" x="363.474968" y="177.706314" style="stroke: #000000; stroke-width: 0.8"/>
      </g>
     </g>
     <g id="text_8">
      <!-- $\mathdefault{0}$ -->
      <g transform="translate(24.888254 181.898092) scale(0.12 -0.12)">
       <use xlink:href="#LinLibertineT-30" transform="scale(0.996264)"/>
      </g>
     </g>
    </g>
    <g id="ytick_2">
     <g id="line2d_45">
      <g>
       <use xlink:href="#m0a333bc47c" x="33.947409" y="130.976379" style="stroke: #000000; stroke-width: 0.8"/>
      </g>
     </g>
     <g id="line2d_46">
      <g>
       <use xlink:href="#m29676a2bba" x="363.474968" y="130.976379" style="stroke: #000000; stroke-width: 0.8"/>
      </g>
     </g>
     <g id="text_9">
      <!-- $\mathdefault{20}$ -->
      <g transform="translate(19.329099 135.168157) scale(0.12 -0.12)">
       <use xlink:href="#LinLibertineT-32" transform="scale(0.996264)"/>
       <use xlink:href="#LinLibertineT-30" transform="translate(46.326292 0) scale(0.996264)"/>
      </g>
     </g>
    </g>
    <g id="ytick_3">
     <g id="line2d_47">
      <g>
       <use xlink:href="#m0a333bc47c" x="33.947409" y="84.246444" style="stroke: #000000; stroke-width: 0.8"/>
      </g>
     </g>
     <g id="line2d_48">
      <g>
       <use xlink:href="#m29676a2bba" x="363.474968" y="84.246444" style="stroke: #000000; stroke-width: 0.8"/>
      </g>
     </g>
     <g id="text_10">
      <!-- $\mathdefault{40}$ -->
      <g transform="translate(19.329099 88.438222) scale(0.12 -0.12)">
       <use xlink:href="#LinLibertineT-34" transform="scale(0.996264)"/>
       <use xlink:href="#LinLibertineT-30" transform="translate(46.326292 0) scale(0.996264)"/>
      </g>
     </g>
    </g>
    <g id="ytick_4">
     <g id="line2d_49">
      <g>
       <use xlink:href="#m0a333bc47c" x="33.947409" y="37.516509" style="stroke: #000000; stroke-width: 0.8"/>
      </g>
     </g>
     <g id="line2d_50">
      <g>
       <use xlink:href="#m29676a2bba" x="363.474968" y="37.516509" style="stroke: #000000; stroke-width: 0.8"/>
      </g>
     </g>
     <g id="text_11">
      <!-- $\mathdefault{60}$ -->
      <g transform="translate(19.329099 41.708287) scale(0.12 -0.12)">
       <use xlink:href="#LinLibertineT-36" transform="scale(0.996264)"/>
       <use xlink:href="#LinLibertineT-30" transform="translate(46.326292 0) scale(0.996264)"/>
      </g>
     </g>
    </g>
    <g id="ytick_5">
     <g id="line2d_51">
      <defs>
       <path id="m4a69bbf193" d="M 0 0 
L 2.5 0 
" style="stroke: #000000; stroke-width: 0.4"/>
      </defs>
      <g>
       <use xlink:href="#m4a69bbf193" x="33.947409" y="201.071282" style="stroke: #000000; stroke-width: 0.4"/>
      </g>
     </g>
     <g id="line2d_52">
      <defs>
       <path id="m643e4cc48a" d="M 0 0 
L -2.5 0 
" style="stroke: #000000; stroke-width: 0.4"/>
      </defs>
      <g>
       <use xlink:href="#m643e4cc48a" x="363.474968" y="201.071282" style="stroke: #000000; stroke-width: 0.4"/>
      </g>
     </g>
    </g>
    <g id="ytick_6">
     <g id="line2d_53">
      <g>
       <use xlink:href="#m4a69bbf193" x="33.947409" y="189.388798" style="stroke: #000000; stroke-width: 0.4"/>
      </g>
     </g>
     <g id="line2d_54">
      <g>
       <use xlink:href="#m643e4cc48a" x="363.474968" y="189.388798" style="stroke: #000000; stroke-width: 0.4"/>
      </g>
     </g>
    </g>
    <g id="ytick_7">
     <g id="line2d_55">
      <g>
       <use xlink:href="#m4a69bbf193" x="33.947409" y="166.02383" style="stroke: #000000; stroke-width: 0.4"/>
      </g>
     </g>
     <g id="line2d_56">
      <g>
       <use xlink:href="#m643e4cc48a" x="363.474968" y="166.02383" style="stroke: #000000; stroke-width: 0.4"/>
      </g>
     </g>
    </g>
    <g id="ytick_8">
     <g id="line2d_57">
      <g>
       <use xlink:href="#m4a69bbf193" x="33.947409" y="154.341347" style="stroke: #000000; stroke-width: 0.4"/>
      </g>
     </g>
     <g id="line2d_58">
      <g>
       <use xlink:href="#m643e4cc48a" x="363.474968" y="154.341347" style="stroke: #000000; stroke-width: 0.4"/>
      </g>
     </g>
    </g>
    <g id="ytick_9">
     <g id="line2d_59">
      <g>
       <use xlink:href="#m4a69bbf193" x="33.947409" y="142.658863" style="stroke: #000000; stroke-width: 0.4"/>
      </g>
     </g>
     <g id="line2d_60">
      <g>
       <use xlink:href="#m643e4cc48a" x="363.474968" y="142.658863" style="stroke: #000000; stroke-width: 0.4"/>
      </g>
     </g>
    </g>
    <g id="ytick_10">
     <g id="line2d_61">
      <g>
       <use xlink:href="#m4a69bbf193" x="33.947409" y="119.293895" style="stroke: #000000; stroke-width: 0.4"/>
      </g>
     </g>
     <g id="line2d_62">
      <g>
       <use xlink:href="#m643e4cc48a" x="363.474968" y="119.293895" style="stroke: #000000; stroke-width: 0.4"/>
      </g>
     </g>
    </g>
    <g id="ytick_11">
     <g id="line2d_63">
      <g>
       <use xlink:href="#m4a69bbf193" x="33.947409" y="107.611412" style="stroke: #000000; stroke-width: 0.4"/>
      </g>
     </g>
     <g id="line2d_64">
      <g>
       <use xlink:href="#m643e4cc48a" x="363.474968" y="107.611412" style="stroke: #000000; stroke-width: 0.4"/>
      </g>
     </g>
    </g>
    <g id="ytick_12">
     <g id="line2d_65">
      <g>
       <use xlink:href="#m4a69bbf193" x="33.947409" y="95.928928" style="stroke: #000000; stroke-width: 0.4"/>
      </g>
     </g>
     <g id="line2d_66">
      <g>
       <use xlink:href="#m643e4cc48a" x="363.474968" y="95.928928" style="stroke: #000000; stroke-width: 0.4"/>
      </g>
     </g>
    </g>
    <g id="ytick_13">
     <g id="line2d_67">
      <g>
       <use xlink:href="#m4a69bbf193" x="33.947409" y="72.56396" style="stroke: #000000; stroke-width: 0.4"/>
      </g>
     </g>
     <g id="line2d_68">
      <g>
       <use xlink:href="#m643e4cc48a" x="363.474968" y="72.56396" style="stroke: #000000; stroke-width: 0.4"/>
      </g>
     </g>
    </g>
    <g id="ytick_14">
     <g id="line2d_69">
      <g>
       <use xlink:href="#m4a69bbf193" x="33.947409" y="60.881477" style="stroke: #000000; stroke-width: 0.4"/>
      </g>
     </g>
     <g id="line2d_70">
      <g>
       <use xlink:href="#m643e4cc48a" x="363.474968" y="60.881477" style="stroke: #000000; stroke-width: 0.4"/>
      </g>
     </g>
    </g>
    <g id="ytick_15">
     <g id="line2d_71">
      <g>
       <use xlink:href="#m4a69bbf193" x="33.947409" y="49.198993" style="stroke: #000000; stroke-width: 0.4"/>
      </g>
     </g>
     <g id="line2d_72">
      <g>
       <use xlink:href="#m643e4cc48a" x="363.474968" y="49.198993" style="stroke: #000000; stroke-width: 0.4"/>
      </g>
     </g>
    </g>
    <g id="ytick_16">
     <g id="line2d_73">
      <g>
       <use xlink:href="#m4a69bbf193" x="33.947409" y="25.834025" style="stroke: #000000; stroke-width: 0.4"/>
      </g>
     </g>
     <g id="line2d_74">
      <g>
       <use xlink:href="#m643e4cc48a" x="363.474968" y="25.834025" style="stroke: #000000; stroke-width: 0.4"/>
      </g>
     </g>
    </g>
    <g id="ytick_17">
     <g id="line2d_75">
      <g>
       <use xlink:href="#m4a69bbf193" x="33.947409" y="14.151542" style="stroke: #000000; stroke-width: 0.4"/>
      </g>
     </g>
     <g id="line2d_76">
      <g>
       <use xlink:href="#m643e4cc48a" x="363.474968" y="14.151542" style="stroke: #000000; stroke-width: 0.4"/>
      </g>
     </g>
    </g>
    <g id="ytick_18">
     <g id="line2d_77">
      <g>
       <use xlink:href="#m4a69bbf193" x="33.947409" y="2.469058" style="stroke: #000000; stroke-width: 0.4"/>
      </g>
     </g>
     <g id="line2d_78">
      <g>
       <use xlink:href="#m643e4cc48a" x="363.474968" y="2.469058" style="stroke: #000000; stroke-width: 0.4"/>
      </g>
     </g>
    </g>
    <g id="text_12">
     <!-- $S$ (dB) -->
     <g transform="translate(10.543555 118.022551) rotate(-90) scale(0.12 -0.12)">
      <defs>
       <path id="LibertineMathMI-28" d="M 3155 4020 
C 2829 4072 2867 4224 2298 4224 
C 1760 4224 1062 3858 928 3178 
C 915 3100 909 3030 909 2966 
C 909 2394 1402 2092 1850 1867 
C 2144 1720 2381 1514 2381 1129 
C 2381 1059 2374 982 2355 892 
C 2253 372 1939 166 1472 166 
C 928 166 608 436 602 1078 
L 410 1059 
C 390 572 378 359 326 32 
C 698 32 858 -64 1376 -64 
C 2086 -64 2765 463 2893 1118 
C 2912 1201 2918 1284 2918 1361 
C 2918 1926 2477 2215 2048 2414 
C 1837 2510 1370 2780 1370 3223 
C 1370 3261 1376 3306 1382 3351 
C 1459 3743 1792 4007 2195 4007 
C 2784 4007 2867 3624 2906 3197 
L 3104 3197 
C 3104 3503 3136 3676 3155 4020 
z
" transform="scale(0.015625)"/>
       <path id="LinLibertineT-28" d="M 282 1616 
C 282 1328 307 -154 1638 -1308 
C 1702 -1296 1754 -1251 1773 -1199 
C 1562 -956 813 -71 813 1616 
C 813 3303 1568 4188 1773 4419 
C 1754 4483 1709 4528 1638 4534 
C 877 3880 282 2809 282 1616 
z
" transform="scale(0.015625)"/>
       <path id="LinLibertineT-64" d="M 2208 795 
C 2208 673 2195 622 2106 545 
C 1869 340 1664 237 1504 237 
C 1158 237 800 616 800 1417 
C 800 1879 890 2136 986 2270 
C 1184 2572 1453 2591 1581 2591 
C 1811 2591 1971 2508 2099 2360 
C 2189 2258 2208 2213 2208 2014 
L 2208 795 
z
M 2138 321 
C 2170 346 2227 359 2234 314 
C 2253 160 2304 -64 2304 -64 
C 2355 -83 2387 -77 2426 -64 
C 2566 51 2790 148 3181 192 
C 3219 231 3219 327 3181 366 
C 2771 398 2714 520 2714 835 
L 2714 3741 
C 2714 4159 2739 4416 2739 4416 
C 2739 4460 2714 4480 2656 4480 
C 2496 4414 2016 4320 1760 4300 
C 1747 4246 1760 4140 1798 4100 
C 2131 4100 2208 4132 2208 3590 
L 2208 2765 
C 2208 2719 2195 2707 2150 2707 
C 2125 2707 1862 2816 1651 2816 
C 1229 2816 947 2674 691 2431 
C 416 2155 250 1777 250 1302 
C 250 513 646 -64 1338 -64 
C 1587 -64 1824 64 2138 321 
z
" transform="scale(0.015625)"/>
       <path id="LinLibertineT-42" d="M 1222 3546 
C 1222 3884 1222 3949 1779 3949 
C 2138 3949 2605 3756 2605 3104 
C 2605 2561 2227 2368 1696 2368 
L 1222 2368 
L 1222 3546 
z
M 1222 2150 
L 1664 2150 
C 2541 2150 2906 1652 2906 1071 
C 2906 599 2726 205 1754 205 
C 1306 205 1222 373 1222 767 
L 1222 2150 
z
M 122 4160 
C 83 4121 83 3987 122 3949 
C 570 3949 678 3917 678 3377 
L 678 776 
C 678 237 570 205 122 205 
C 83 167 83 38 122 0 
C 371 0 717 0 954 0 
C 1184 0 1350 0 1888 0 
C 3162 0 3501 644 3501 1197 
C 3501 1815 3072 2169 2515 2330 
L 2515 2343 
C 2835 2502 3123 2834 3123 3178 
C 3123 3605 2938 4160 1747 4160 
C 1523 4160 1178 4160 947 4160 
C 717 4160 371 4160 122 4160 
z
" transform="scale(0.015625)"/>
       <path id="LinLibertineT-29" d="M 1626 1616 
C 1626 1905 1600 3386 269 4541 
C 205 4528 154 4483 134 4432 
C 346 4188 1094 3303 1094 1616 
C 1094 -71 339 -956 134 -1187 
C 154 -1251 198 -1296 269 -1302 
C 1030 -648 1626 423 1626 1616 
z
" transform="scale(0.015625)"/>
      </defs>
      <use xlink:href="#LibertineMathMI-28" transform="scale(0.996264)"/>
      <use xlink:href="#LinLibertineT-28" transform="translate(78.156817 0) scale(0.996264)"/>
      <use xlink:href="#LinLibertineT-64" transform="translate(106.151842 0) scale(0.996264)"/>
      <use xlink:href="#LinLibertineT-42" transform="translate(156.562746 0) scale(0.996264)"/>
      <use xlink:href="#LinLibertineT-29" transform="translate(215.143088 0) scale(0.996264)"/>
     </g>
    </g>
   </g>
   <g id="line2d_79">
    <path d="M 48.925935 177.706314 
L 49.03996 177.050006 
L 49.393807 176.367483 
L 50.041752 175.623052 
L 51.067084 174.796455 
L 52.587426 173.865835 
L 54.761486 172.807247 
L 57.745795 171.612848 
L 61.713079 170.273057 
L 66.92565 168.755978 
L 73.712089 167.023659 
L 82.378266 165.05091 
L 93.60541 162.735003 
L 108.307751 159.940879 
L 129.543742 156.150406 
L 192.315592 145.070188 
L 210.923369 141.491737 
L 226.257537 138.324782 
L 239.645322 135.337535 
L 251.297082 132.514873 
L 261.523184 129.816814 
L 270.710011 127.168454 
L 278.776597 124.621471 
L 286.186392 122.051744 
L 292.631205 119.591823 
L 298.614817 117.072806 
L 303.840882 114.640764 
L 308.562714 112.210345 
L 312.765022 109.814763 
L 316.717612 107.310766 
L 320.128937 104.904342 
L 323.274951 102.431251 
L 326.150708 99.90167 
L 328.751708 97.332785 
L 331.073903 94.751552 
L 333.405695 91.806346 
L 335.453884 88.836279 
L 337.215322 85.901417 
L 338.982158 82.480471 
L 340.458644 79.120494 
L 341.938879 75.102851 
L 343.125766 71.205091 
L 344.315051 66.387324 
L 345.20859 61.843465 
L 346.103478 55.989833 
L 346.700819 50.879356 
L 347.298761 44.040643 
L 347.897302 33.66351 
L 348.196797 25.429701 
L 348.496443 11.357514 
L 348.496443 11.357514 
" clip-path="url(#pb6fa7eea90)" style="fill: none; stroke: #440154; stroke-width: 1.8; stroke-linecap: square"/>
   </g>
   <g id="line2d_80">
    <path d="M 48.925935 177.706314 
L 49.034188 178.337161 
L 49.370417 178.975774 
L 49.98755 179.653495 
L 50.966927 180.383782 
L 52.423622 181.178656 
L 54.472336 182.033245 
L 57.289017 182.956609 
L 61.040995 183.940874 
L 65.911788 184.976696 
L 72.017822 186.039775 
L 79.632654 187.131303 
L 88.876156 188.224005 
L 99.950741 189.302176 
L 112.931452 190.337957 
L 128.150469 191.323669 
L 145.671291 192.230821 
L 165.875428 193.048872 
L 189.017019 193.758603 
L 215.808556 194.352087 
L 247.130909 194.816114 
L 284.322923 195.136234 
L 329.621406 195.294878 
L 348.496443 195.307788 
L 348.496443 195.307788 
" clip-path="url(#pb6fa7eea90)" style="fill: none; stroke-dasharray: 6.66,2.88; stroke-dashoffset: 0; stroke: #440154; stroke-width: 1.8"/>
   </g>
   <g id="line2d_81">
    <path d="M 48.925935 177.706314 
L 49.03996 177.085375 
L 49.393807 176.437405 
L 50.060119 175.711575 
L 51.118061 174.904003 
L 52.721168 173.975528 
L 55.015176 172.918534 
L 58.162015 171.723985 
L 62.403305 170.362074 
L 67.968898 168.817445 
L 75.199371 167.050189 
L 84.514617 165.010543 
L 96.665587 162.587816 
L 113.070067 159.557919 
L 138.813932 155.057212 
L 183.336876 147.272948 
L 203.731655 143.464614 
L 220.312608 140.146799 
L 234.420382 137.10187 
L 246.64362 134.243038 
L 257.502523 131.479815 
L 267.114266 128.809234 
L 275.636955 126.217177 
L 283.261383 123.673156 
L 290.20428 121.123807 
L 296.430562 118.600358 
L 301.909192 116.146919 
L 306.891237 113.67827 
L 311.360504 111.222228 
L 315.302599 108.818198 
L 318.98943 106.316436 
L 322.415148 103.714374 
L 325.286406 101.272511 
L 327.883358 98.804141 
L 330.492455 96.007099 
L 332.821847 93.162389 
L 334.867937 90.308929 
L 336.627576 87.506508 
L 338.392613 84.264774 
L 339.8676 81.110839 
L 341.346335 77.385212 
L 342.532022 73.82641 
L 343.720109 69.517623 
L 344.612748 65.56205 
L 345.506736 60.652519 
L 346.402074 54.174396 
L 346.999715 48.325857 
L 347.597956 40.086968 
L 347.897302 34.243512 
L 348.196797 26.009703 
L 348.496443 11.937516 
L 348.496443 11.937516 
" clip-path="url(#pb6fa7eea90)" style="fill: none; stroke: #31688e; stroke-width: 1.8; stroke-linecap: square"/>
   </g>
   <g id="line2d_82">
    <path d="M 48.925935 177.706314 
L 49.034188 178.301065 
L 49.370417 178.900924 
L 49.98755 179.534938 
L 50.991741 180.229591 
L 52.488694 180.979689 
L 54.636665 181.793122 
L 57.592186 182.661713 
L 61.527984 183.57601 
L 66.632976 184.525106 
L 73.112274 185.496465 
L 81.187181 186.475788 
L 91.095196 187.446978 
L 103.090008 188.39227 
L 117.441501 189.292623 
L 134.435751 190.128438 
L 154.375027 190.88062 
L 177.970922 191.541313 
L 205.89372 192.093375 
L 239.40625 192.525209 
L 280.354515 192.821105 
L 331.9472 192.961184 
L 348.496443 192.968601 
L 348.496443 192.968601 
" clip-path="url(#pb6fa7eea90)" style="fill: none; stroke-dasharray: 6.66,2.88; stroke-dashoffset: 0; stroke: #31688e; stroke-width: 1.8"/>
   </g>
   <g id="line2d_83">
    <path d="M 48.925935 177.706314 
L 49.03996 177.117126 
L 49.393807 176.500378 
L 50.060119 175.807337 
L 51.143775 175.017391 
L 52.788939 174.107666 
L 55.187301 173.052383 
L 58.480477 171.857686 
L 62.98153 170.474424 
L 68.886501 168.90263 
L 76.638749 167.080125 
L 86.71709 164.950697 
L 99.950741 162.393567 
L 118.304228 159.089295 
L 154.197279 152.908673 
L 184.342566 147.61159 
L 204.3787 143.86902 
L 220.766312 140.587274 
L 234.656305 137.587207 
L 246.88719 134.724479 
L 257.75269 131.955969 
L 267.370131 129.278861 
L 275.897767 126.679097 
L 283.526543 124.126121 
L 290.473338 121.566311 
L 296.703069 119.030904 
L 302.184698 116.564152 
L 307.169442 114.080242 
L 311.641108 111.606946 
L 315.585302 109.183785 
L 319.274082 106.659471 
L 322.701599 104.030722 
L 325.574357 101.560425 
L 328.172658 99.059538 
L 330.492455 96.555555 
L 332.821847 93.710889 
L 334.867937 90.857462 
L 336.627576 88.055066 
L 338.392613 84.813353 
L 339.8676 81.659433 
L 341.346335 77.933818 
L 342.532022 74.375025 
L 343.720109 70.066245 
L 344.612748 66.110676 
L 345.506736 61.201149 
L 346.402074 54.723028 
L 346.999715 48.874491 
L 347.597956 40.635602 
L 347.897302 34.792147 
L 348.196797 26.558338 
L 348.496443 12.486151 
L 348.496443 12.486151 
" clip-path="url(#pb6fa7eea90)" style="fill: none; stroke: #35b779; stroke-width: 1.8; stroke-linecap: square"/>
   </g>
   <g id="line2d_84">
    <path d="M 48.925935 177.706314 
L 49.034188 178.268878 
L 49.382037 178.848761 
L 50.023535 179.458035 
L 51.067084 180.120811 
L 52.620637 180.831209 
L 54.887656 181.608019 
L 58.004808 182.428428 
L 62.213263 183.293575 
L 67.667829 184.178875 
L 74.6695 185.081245 
L 83.489061 185.983776 
L 94.302609 186.859695 
L 107.509797 187.69993 
L 123.44438 188.484994 
L 142.629707 189.201523 
L 165.688234 189.833912 
L 193.562453 190.369056 
L 227.643838 190.793135 
L 270.194534 191.090791 
L 324.998606 191.240809 
L 348.496443 191.252937 
L 348.496443 191.252937 
" clip-path="url(#pb6fa7eea90)" style="fill: none; stroke-dasharray: 6.66,2.88; stroke-dashoffset: 0; stroke: #35b779; stroke-width: 1.8"/>
   </g>
   <g id="line2d_85">
    <path d="M 48.925935 177.706314 
L 49.03996 177.145787 
L 49.393807 176.55739 
L 50.078636 175.879039 
L 51.195653 175.104805 
L 52.891719 174.211752 
L 55.361826 173.173794 
L 58.804337 171.97815 
L 63.505704 170.591424 
L 69.746604 168.992507 
L 77.92969 167.134787 
L 88.65755 164.937288 
L 102.962638 162.245812 
L 123.59394 158.609315 
L 191.694186 146.762546 
L 210.04295 143.264754 
L 225.566411 140.084518 
L 238.928557 137.124985 
L 250.558727 134.328958 
L 261.018503 131.5886 
L 270.194534 128.960262 
L 278.514136 126.347615 
L 285.919733 123.790292 
L 292.631205 121.235118 
L 298.614817 118.717382 
L 303.840882 116.286309 
L 308.562714 113.856652 
L 312.765022 111.461662 
L 316.717612 108.958152 
L 320.128937 106.552095 
L 323.274951 104.079301 
L 326.150708 101.549957 
L 328.751708 98.981259 
L 331.073903 96.400172 
L 333.405695 93.455093 
L 335.453884 90.485122 
L 337.215322 87.550331 
L 338.982158 84.129445 
L 340.458644 80.76951 
L 341.938879 76.751902 
L 343.125766 72.854166 
L 344.315051 68.036418 
L 345.20859 63.492569 
L 346.103478 57.638947 
L 346.700819 52.528474 
L 347.298761 45.689764 
L 347.897302 35.312633 
L 348.196797 27.078825 
L 348.496443 13.006638 
L 348.496443 13.006638 
" clip-path="url(#pb6fa7eea90)" style="fill: none; stroke: #fde725; stroke-width: 1.8; stroke-linecap: square"/>
   </g>
   <g id="line2d_86">
    <path d="M 48.925935 177.706314 
L 49.034188 178.239997 
L 49.382037 178.788478 
L 50.023535 179.362882 
L 51.067084 179.98542 
L 52.653997 180.662169 
L 54.972519 181.396431 
L 58.214717 182.176938 
L 62.594698 182.990993 
L 68.348609 183.824485 
L 75.73464 184.661988 
L 85.137148 185.495156 
L 96.78531 186.296827 
L 111.1431 187.055934 
L 128.768202 187.758326 
L 150.324754 188.387676 
L 176.793331 188.930212 
L 209.60364 189.371736 
L 251.050814 189.697123 
L 304.948003 189.886482 
L 348.496443 189.923357 
L 348.496443 189.923357 
" clip-path="url(#pb6fa7eea90)" style="fill: none; stroke-dasharray: 6.66,2.88; stroke-dashoffset: 0; stroke: #fde725; stroke-width: 1.8"/>
   </g>
   <g id="patch_3">
    <path d="M 33.947409 204.505301 
L 33.947409 2.16 
" style="fill: none; stroke: #000000; stroke-width: 0.9; stroke-linejoin: miter; stroke-linecap: square"/>
   </g>
   <g id="patch_4">
    <path d="M 363.474968 204.505301 
L 363.474968 2.16 
" style="fill: none; stroke: #000000; stroke-width: 0.9; stroke-linejoin: miter; stroke-linecap: square"/>
   </g>
   <g id="patch_5">
    <path d="M 33.947409 204.505301 
L 363.474968 204.505301 
" style="fill: none; stroke: #000000; stroke-width: 0.9; stroke-linejoin: miter; stroke-linecap: square"/>
   </g>
   <g id="patch_6">
    <path d="M 33.947409 2.16 
L 363.474968 2.16 
" style="fill: none; stroke: #000000; stroke-width: 0.9; stroke-linejoin: miter; stroke-linecap: square"/>
   </g>
   <g id="legend_1">
    <g id="text_13">
     <!-- Escape efficiency -->
     <g transform="translate(73.598268 21.343555) scale(0.12 -0.12)">
      <defs>
       <path id="LinLibertineT-45" d="M 1798 2304 
L 1216 2304 
L 1216 3474 
C 1216 3760 1293 3890 1638 3890 
L 2118 3890 
C 2598 3890 2701 3632 2842 3187 
C 2918 3174 2989 3187 3053 3219 
C 3021 3485 2925 4108 2912 4160 
C 2912 4160 2906 4160 2886 4160 
C 2778 4160 2726 4160 2573 4160 
L 941 4160 
C 749 4160 371 4160 115 4160 
C 77 4119 77 3975 115 3935 
C 563 3935 672 3903 672 3366 
L 672 779 
C 672 243 563 211 115 211 
C 77 172 77 39 115 0 
C 352 0 736 0 947 0 
L 2323 0 
C 2630 0 3142 0 3142 0 
C 3232 318 3328 738 3379 1062 
C 3315 1101 3238 1114 3155 1094 
C 3027 634 2803 256 2317 256 
L 1574 256 
C 1306 256 1216 358 1216 656 
L 1216 2061 
L 1798 2061 
C 2342 2061 2362 1917 2381 1637 
C 2419 1600 2554 1600 2592 1637 
C 2586 1804 2579 1984 2579 2202 
C 2579 2381 2586 2600 2592 2753 
C 2554 2793 2419 2793 2381 2753 
C 2362 2391 2342 2304 1798 2304 
z
" transform="scale(0.015625)"/>
       <path id="LinLibertineT-73" d="M 307 886 
C 333 572 352 269 352 0 
C 416 13 480 19 512 19 
C 557 19 595 19 640 6 
C 813 -38 986 -64 1222 -64 
C 1581 -64 2240 109 2240 744 
C 2240 1180 1926 1437 1491 1597 
C 1107 1745 851 1841 851 2193 
C 851 2456 1082 2604 1299 2604 
C 1440 2604 1811 2553 1894 2007 
C 1933 1969 2061 1969 2099 2008 
C 2118 2241 2131 2480 2138 2694 
C 1939 2726 1632 2816 1299 2816 
C 826 2816 397 2508 397 2097 
C 397 1629 608 1430 1101 1225 
C 1632 1007 1754 872 1754 596 
C 1754 282 1446 148 1210 148 
C 960 148 819 230 755 300 
C 614 447 544 727 506 885 
C 467 924 346 924 307 886 
z
" transform="scale(0.015625)"/>
       <path id="LinLibertineT-63" d="M 2547 584 
C 2522 641 2470 667 2413 673 
C 2195 391 1920 250 1645 250 
C 1178 250 787 725 787 1475 
C 787 2181 1094 2604 1517 2604 
C 1894 2604 1946 2379 1971 2155 
C 1990 1982 2080 1924 2214 1924 
C 2349 1924 2528 2007 2528 2206 
C 2528 2559 2163 2816 1549 2816 
C 915 2816 237 2245 237 1334 
C 237 507 698 -64 1504 -64 
C 1888 -64 2227 58 2547 584 
z
" transform="scale(0.015625)"/>
       <path id="LinLibertineT-61" d="M 1875 1495 
L 1875 648 
C 1875 564 1837 520 1786 481 
C 1619 346 1402 199 1222 199 
C 902 199 762 455 762 654 
C 762 944 896 1239 1370 1361 
L 1875 1495 
z
M 1875 308 
C 1914 109 1984 -64 2304 -64 
C 2547 -64 2778 45 2912 173 
C 2899 250 2874 309 2803 347 
C 2758 309 2650 244 2566 244 
C 2381 244 2374 494 2374 789 
L 2374 1732 
C 2374 2642 1875 2816 1408 2816 
C 883 2816 352 2469 352 2104 
C 352 1950 429 1873 576 1873 
C 762 1873 877 2007 877 2091 
C 877 2136 870 2181 858 2206 
C 851 2226 845 2264 845 2335 
C 845 2533 1114 2604 1357 2604 
C 1574 2604 1875 2495 1875 1770 
C 1875 1725 1856 1700 1837 1693 
L 1286 1559 
C 672 1405 230 1065 230 629 
C 230 103 589 -64 1037 -64 
C 1261 -64 1453 -13 1734 205 
L 1862 308 
L 1875 308 
z
" transform="scale(0.015625)"/>
       <path id="LinLibertineT-70" d="M 1120 2162 
C 1286 2367 1581 2560 1766 2560 
C 2176 2560 2528 2098 2528 1373 
C 2528 846 2342 192 1626 192 
C 1510 192 1286 224 1171 327 
C 1043 442 1018 481 1018 711 
L 1018 1880 
C 1018 2014 1043 2072 1120 2162 
z
M 998 2400 
C 992 2592 979 2758 947 2823 
C 934 2855 922 2874 870 2874 
C 691 2803 525 2746 83 2688 
C 70 2649 83 2546 96 2507 
C 442 2474 512 2442 512 2067 
L 512 -693 
C 512 -1229 442 -1261 51 -1261 
C 13 -1300 13 -1433 51 -1472 
C 275 -1472 512 -1472 768 -1472 
C 1024 -1472 1331 -1472 1542 -1472 
C 1581 -1433 1581 -1300 1542 -1261 
C 1088 -1261 1018 -1235 1018 -687 
L 1018 25 
C 1018 109 1043 102 1107 70 
C 1267 12 1459 -26 1664 -26 
C 2022 -26 2342 83 2605 333 
C 2906 628 3078 1026 3078 1546 
C 3078 2226 2598 2855 1946 2855 
C 1651 2855 1325 2656 1069 2375 
C 1030 2336 1005 2336 998 2400 
z
" transform="scale(0.015625)"/>
       <path id="LinLibertineT-65" d="M 794 1831 
C 915 2547 1363 2604 1517 2604 
C 1760 2604 2048 2467 2048 1922 
C 2048 1863 2022 1831 1952 1831 
L 794 1831 
z
M 2470 600 
C 2234 354 2048 250 1677 250 
C 1446 250 1178 386 979 715 
C 851 929 774 1226 774 1600 
L 2477 1600 
C 2554 1600 2598 1638 2598 1708 
C 2598 2243 2406 2816 1517 2816 
C 960 2816 237 2281 237 1302 
C 237 941 326 593 538 348 
C 755 91 1056 -64 1517 -64 
C 2003 -64 2349 161 2605 497 
C 2586 562 2547 594 2470 600 
z
" transform="scale(0.015625)"/>
       <path id="LinLibertineT-81" d="M 2431 3616 
C 2373 3386 2360 3142 2360 3002 
L 2360 2746 
L 1069 2746 
L 1069 2822 
C 1069 3258 1101 3469 1139 3590 
C 1274 4102 1619 4179 1715 4179 
C 1875 4179 2034 4077 2111 3853 
C 2162 3718 2220 3603 2386 3603 
C 2399 3603 2418 3603 2431 3616 
z
M 4224 781 
C 4224 250 4166 218 3846 198 
C 3808 160 3808 26 3846 -13 
C 4051 -6 4262 0 4480 0 
C 4698 0 4947 -6 5178 -13 
C 5216 26 5216 160 5178 198 
C 4819 224 4730 250 4730 781 
L 4730 2240 
C 4730 2432 4742 2810 4742 2810 
C 4742 2822 4736 2829 4717 2829 
C 4525 2752 4333 2746 4108 2746 
L 2866 2746 
L 2866 3110 
C 2866 4096 3276 4256 3487 4256 
C 3699 4256 3961 4179 4006 3904 
C 4064 3558 4179 3398 4384 3398 
C 4518 3398 4653 3514 4653 3648 
C 4653 3885 4429 4134 4192 4294 
C 4032 4403 3801 4467 3564 4467 
C 3141 4467 2770 4211 2597 3987 
C 2514 4147 2239 4358 1727 4358 
C 1555 4358 1331 4320 1196 4237 
C 755 3981 589 3526 589 2746 
L 262 2746 
C 147 2746 115 2669 115 2618 
L 115 2534 
C 115 2502 122 2496 147 2496 
L 576 2496 
L 576 781 
C 576 250 506 224 160 198 
C 122 160 122 26 160 -13 
C 390 -6 621 0 832 0 
C 1050 0 1261 -6 1459 -13 
C 1498 26 1498 160 1459 198 
C 1165 224 1082 250 1082 781 
L 1082 2496 
L 2360 2496 
L 2360 781 
C 2360 250 2290 224 2008 198 
C 1970 160 1970 26 2008 -13 
C 2194 -6 2399 0 2616 0 
C 2828 0 3058 -6 3276 -13 
C 3314 26 3314 160 3275 198 
C 2923 224 2866 250 2866 781 
L 2866 2496 
L 4045 2496 
C 4211 2496 4224 2426 4224 2170 
L 4224 781 
z
" transform="scale(0.015625)"/>
       <path id="LinLibertineT-69" d="M 576 3852 
C 576 3685 730 3518 883 3518 
C 1062 3518 1216 3691 1216 3826 
C 1216 3980 1082 4160 909 4160 
C 755 4160 576 4006 576 3852 
z
M 1158 779 
L 1158 2064 
C 1158 2386 1184 2799 1184 2799 
C 1184 2825 1152 2844 1101 2844 
C 922 2773 666 2716 224 2658 
C 211 2619 224 2517 237 2478 
C 589 2446 653 2408 653 2043 
L 653 794 
C 653 263 582 244 192 212 
C 154 173 154 39 192 0 
C 403 0 653 0 909 0 
C 1165 0 1408 0 1619 0 
C 1658 40 1658 178 1619 218 
C 1229 218 1158 244 1158 779 
z
" transform="scale(0.015625)"/>
       <path id="LinLibertineT-6e" d="M 1178 2309 
C 1139 2264 1101 2251 1101 2309 
C 1094 2482 1082 2733 1050 2798 
C 1037 2830 1024 2849 973 2849 
C 794 2778 627 2721 186 2663 
C 173 2624 186 2522 198 2483 
C 544 2451 614 2419 614 2047 
L 614 795 
C 614 270 550 244 166 212 
C 128 173 128 39 166 0 
C 358 0 614 0 870 0 
C 1126 0 1318 0 1510 0 
C 1549 39 1549 173 1510 212 
C 1184 244 1120 270 1120 795 
L 1120 1848 
C 1120 1983 1178 2060 1229 2118 
C 1472 2355 1760 2496 2010 2496 
C 2138 2496 2272 2413 2349 2265 
C 2413 2137 2426 1964 2426 1771 
L 2426 795 
C 2426 270 2362 244 2029 212 
C 1997 173 1997 39 2029 0 
C 2221 0 2426 0 2682 0 
C 2938 0 3168 0 3360 0 
C 3392 39 3392 173 3360 212 
C 3002 244 2931 270 2931 795 
L 2931 1752 
C 2931 2105 2906 2413 2758 2612 
C 2650 2753 2451 2830 2227 2830 
C 1914 2830 1555 2746 1178 2309 
z
" transform="scale(0.015625)"/>
       <path id="LinLibertineT-79" d="M 1306 -1010 
C 1408 -830 1491 -650 1568 -458 
C 2080 781 2368 1443 2701 2161 
C 2829 2432 2918 2534 3219 2573 
C 3258 2611 3258 2746 3219 2784 
C 3091 2784 2944 2784 2765 2784 
C 2573 2784 2374 2784 2182 2784 
C 2144 2746 2144 2611 2182 2573 
C 2387 2553 2592 2515 2490 2284 
L 1856 815 
C 1811 713 1754 693 1702 822 
L 1133 2156 
C 1018 2425 986 2547 1344 2573 
C 1382 2611 1382 2746 1344 2784 
C 1107 2784 851 2784 621 2784 
C 403 2784 230 2784 102 2784 
C 64 2746 64 2611 102 2573 
C 358 2541 442 2483 608 2091 
L 1331 402 
C 1389 274 1485 -21 1421 -201 
C 1344 -413 1267 -593 1171 -792 
C 1101 -920 1011 -978 851 -978 
C 762 -978 736 -959 666 -959 
C 480 -959 384 -1151 384 -1235 
C 384 -1369 512 -1472 685 -1472 
C 819 -1472 1075 -1421 1306 -1010 
z
" transform="scale(0.015625)"/>
      </defs>
      <use xlink:href="#LinLibertineT-45" transform="scale(0.996264)"/>
      <use xlink:href="#LinLibertineT-73" transform="translate(55.491918 0) scale(0.996264)"/>
      <use xlink:href="#LinLibertineT-63" transform="translate(94.346244 0) scale(0.996264)"/>
      <use xlink:href="#LinLibertineT-61" transform="translate(136.986377 0) scale(0.996264)"/>
      <use xlink:href="#LinLibertineT-70" transform="translate(182.515609 0) scale(0.996264)"/>
      <use xlink:href="#LinLibertineT-65" transform="translate(234.919087 0) scale(0.996264)"/>
      <use xlink:href="#LinLibertineT-65" transform="translate(304.35864 0) scale(0.996264)"/>
      <use xlink:href="#LinLibertineT-81" transform="translate(348.891592 0) scale(0.996264)"/>
      <use xlink:href="#LinLibertineT-63" transform="translate(431.481918 0) scale(0.996264)"/>
      <use xlink:href="#LinLibertineT-69" transform="translate(474.122051 0) scale(0.996264)"/>
      <use xlink:href="#LinLibertineT-65" transform="translate(501.120797 0) scale(0.996264)"/>
      <use xlink:href="#LinLibertineT-6e" transform="translate(545.65375 0) scale(0.996264)"/>
      <use xlink:href="#LinLibertineT-63" transform="translate(599.651241 0) scale(0.996264)"/>
      <use xlink:href="#LinLibertineT-79" transform="translate(642.291374 0) scale(0.996264)"/>
     </g>
    </g>
    <g id="line2d_87">
     <path d="M 44.747409 34.329099 
L 56.747409 34.329099 
L 68.747409 34.329099 
" style="fill: none; stroke: #440154; stroke-width: 1.8; stroke-linecap: square"/>
    </g>
    <g id="text_14">
     <!-- 0.824 -->
     <g transform="translate(78.347409 38.529099) scale(0.12 -0.12)">
      <defs>
       <path id="LinLibertineT-2e" d="M 365 276 
C 365 90 518 -64 704 -64 
C 890 -64 1043 90 1043 276 
C 1043 462 890 616 704 616 
C 518 616 365 462 365 276 
z
" transform="scale(0.015625)"/>
      </defs>
      <use xlink:href="#LinLibertineT-30" transform="scale(0.996264)"/>
      <use xlink:href="#LinLibertineT-2e" transform="translate(46.326292 0) scale(0.996264)"/>
      <use xlink:href="#LinLibertineT-38" transform="translate(68.244115 0) scale(0.996264)"/>
      <use xlink:href="#LinLibertineT-32" transform="translate(114.570407 0) scale(0.996264)"/>
      <use xlink:href="#LinLibertineT-34" transform="translate(160.896698 0) scale(0.996264)"/>
     </g>
    </g>
    <g id="line2d_88">
     <path d="M 44.747409 51.514643 
L 56.747409 51.514643 
L 68.747409 51.514643 
" style="fill: none; stroke: #31688e; stroke-width: 1.8; stroke-linecap: square"/>
    </g>
    <g id="text_15">
     <!-- 0.778 -->
     <g transform="translate(78.347409 55.714643) scale(0.12 -0.12)">
      <defs>
       <path id="LinLibertineT-37" d="M 1088 3456 
L 2234 3456 
C 1734 2210 1229 957 794 -19 
L 845 -64 
L 1280 -64 
C 1645 1033 1997 2105 2714 3866 
L 2611 3944 
C 2502 3912 2362 3873 2118 3873 
L 800 3873 
C 582 3873 595 3937 480 3963 
C 461 3963 454 3963 454 3944 
C 448 3635 378 3249 326 2915 
C 397 2895 461 2889 531 2895 
C 672 3411 883 3456 1088 3456 
z
" transform="scale(0.015625)"/>
      </defs>
      <use xlink:href="#LinLibertineT-30" transform="scale(0.996264)"/>
      <use xlink:href="#LinLibertineT-2e" transform="translate(46.326292 0) scale(0.996264)"/>
      <use xlink:href="#LinLibertineT-37" transform="translate(68.244115 0) scale(0.996264)"/>
      <use xlink:href="#LinLibertineT-37" transform="translate(114.570407 0) scale(0.996264)"/>
      <use xlink:href="#LinLibertineT-38" transform="translate(160.896698 0) scale(0.996264)"/>
     </g>
    </g>
    <g id="line2d_89">
     <path d="M 127.214166 34.329099 
L 139.214166 34.329099 
L 151.214166 34.329099 
" style="fill: none; stroke: #35b779; stroke-width: 1.8; stroke-linecap: square"/>
    </g>
    <g id="text_16">
     <!-- 0.737 -->
     <g transform="translate(160.814166 38.529099) scale(0.12 -0.12)">
      <defs>
       <path id="LinLibertineT-33" d="M 1376 3680 
C 1651 3680 1907 3513 1907 3105 
C 1907 2784 1536 2292 902 2202 
L 934 1997 
C 1043 2010 1158 2010 1242 2010 
C 1606 2010 2080 1907 2080 1185 
C 2080 334 1510 160 1286 160 
C 960 160 902 308 826 422 
C 762 512 678 589 550 589 
C 416 589 282 467 282 365 
C 282 109 819 -64 1203 -64 
C 1965 -64 2643 429 2643 1273 
C 2643 1971 2118 2221 1741 2285 
L 1734 2298 
C 2259 2548 2406 2810 2406 3149 
C 2406 3341 2362 3495 2208 3654 
C 2067 3795 1843 3904 1510 3904 
C 570 3904 301 3290 301 3079 
C 301 2989 365 2861 518 2861 
C 742 2861 768 3072 768 3193 
C 768 3603 1210 3680 1376 3680 
z
" transform="scale(0.015625)"/>
      </defs>
      <use xlink:href="#LinLibertineT-30" transform="scale(0.996264)"/>
      <use xlink:href="#LinLibertineT-2e" transform="translate(46.326292 0) scale(0.996264)"/>
      <use xlink:href="#LinLibertineT-37" transform="translate(68.244115 0) scale(0.996264)"/>
      <use xlink:href="#LinLibertineT-33" transform="translate(114.570407 0) scale(0.996264)"/>
      <use xlink:href="#LinLibertineT-37" transform="translate(160.896698 0) scale(0.996264)"/>
     </g>
    </g>
    <g id="line2d_90">
     <path d="M 127.214166 51.514643 
L 139.214166 51.514643 
L 151.214166 51.514643 
" style="fill: none; stroke: #fde725; stroke-width: 1.8; stroke-linecap: square"/>
    </g>
    <g id="text_17">
     <!-- 0.700 -->
     <g transform="translate(160.814166 55.714643) scale(0.12 -0.12)">
      <use xlink:href="#LinLibertineT-30" transform="scale(0.996264)"/>
      <use xlink:href="#LinLibertineT-2e" transform="translate(46.326292 0) scale(0.996264)"/>
      <use xlink:href="#LinLibertineT-37" transform="translate(68.244115 0) scale(0.996264)"/>
      <use xlink:href="#LinLibertineT-30" transform="translate(114.570407 0) scale(0.996264)"/>
      <use xlink:href="#LinLibertineT-30" transform="translate(160.896698 0) scale(0.996264)"/>
     </g>
    </g>
   </g>
   <g id="legend_2">
    <g id="text_18">
     <!-- Quadrature -->
     <g transform="translate(202.920638 21.343555) scale(0.12 -0.12)">
      <defs>
       <path id="LinLibertineT-90" d="M 3662 -779 
C 2843 -457 2139 -450 1947 -450 
C 1877 -450 1813 -457 1749 -463 
C 1768 -450 1793 -431 1813 -418 
C 2081 -226 2369 -93 2587 -35 
C 3137 48 3573 329 3867 744 
C 4123 1108 4264 1569 4264 2106 
C 4264 3427 3349 4207 2203 4207 
C 961 4207 238 3223 238 1983 
C 238 838 1000 84 1953 -44 
C 1838 -101 1729 -172 1627 -249 
C 1326 -466 1070 -722 885 -978 
L 1141 -1107 
C 1205 -1017 1269 -932 1339 -848 
C 1461 -751 1595 -719 1653 -719 
C 2094 -719 2465 -842 3220 -1150 
C 3700 -1349 4161 -1446 4699 -1446 
C 5364 -1446 6010 -1209 6413 -829 
L 6305 -713 
C 5882 -953 5370 -1094 5051 -1094 
C 4564 -1094 4238 -1004 3662 -779 
z
M 2120 3977 
C 2965 3977 3649 3274 3649 1984 
C 3649 841 3099 170 2369 170 
C 1589 170 853 867 853 2093 
C 853 3434 1486 3977 2120 3977 
z
M 6004 -64 
C 6253 -64 6554 64 6868 320 
C 6900 346 6957 358 6964 314 
C 6977 154 7034 -64 7034 -64 
C 7085 -83 7111 -77 7156 -64 
C 7297 51 7521 147 7911 192 
C 7949 230 7949 326 7911 365 
C 7501 397 7444 518 7444 832 
L 7444 2061 
C 7444 2253 7469 2720 7469 2720 
C 7469 2739 7450 2758 7418 2758 
C 7386 2752 7290 2746 7194 2746 
C 6989 2746 6759 2752 6541 2758 
C 6503 2720 6503 2586 6541 2547 
C 6855 2528 6938 2451 6938 2029 
L 6938 794 
C 6938 672 6925 621 6836 544 
C 6599 339 6356 237 6196 237 
C 6004 237 5684 326 5684 896 
L 5684 2061 
C 5684 2253 5709 2720 5709 2720 
C 5709 2739 5690 2758 5658 2758 
C 5626 2752 5530 2746 5434 2746 
C 5229 2746 4999 2752 4781 2758 
C 4743 2720 4743 2586 4781 2547 
C 5089 2522 5178 2451 5178 2035 
L 5178 806 
C 5178 365 5370 -64 6004 -64 
z
" transform="scale(0.015625)"/>
       <path id="LinLibertineT-72" d="M 1126 2296 
C 1114 2553 1107 2719 1075 2784 
C 1062 2816 1050 2835 998 2835 
C 819 2764 653 2707 211 2649 
C 198 2610 211 2508 224 2469 
C 570 2436 640 2404 640 2031 
L 640 777 
C 640 244 563 218 166 218 
C 128 178 128 40 166 0 
C 390 0 640 0 896 0 
C 1152 0 1446 0 1670 0 
C 1709 39 1709 172 1670 211 
C 1222 243 1146 262 1146 791 
L 1146 1678 
C 1146 1844 1222 1990 1299 2106 
C 1370 2207 1517 2418 1594 2418 
C 1651 2418 1709 2405 1760 2335 
C 1805 2271 1882 2188 1990 2188 
C 2144 2188 2291 2348 2291 2508 
C 2291 2630 2176 2816 1907 2816 
C 1606 2816 1344 2533 1197 2283 
C 1158 2213 1126 2264 1126 2296 
z
" transform="scale(0.015625)"/>
       <path id="LinLibertineT-74" d="M 275 2752 
C 186 2752 160 2675 160 2623 
L 160 2540 
C 160 2509 166 2502 192 2502 
L 570 2502 
L 570 571 
C 570 115 768 -64 1062 -64 
C 1357 -64 1677 77 1926 360 
C 1914 424 1875 463 1811 469 
C 1645 340 1453 289 1286 289 
C 1114 289 1075 481 1075 879 
L 1075 2502 
L 1741 2502 
C 1805 2502 1894 2528 1894 2586 
L 1894 2714 
C 1894 2740 1875 2752 1843 2752 
L 1075 2752 
L 1075 3006 
C 1075 3426 1101 3685 1101 3685 
C 1101 3725 1082 3744 1050 3744 
C 1024 3744 966 3718 909 3685 
C 838 3647 774 3614 691 3594 
C 614 3569 550 3549 550 3504 
C 550 3426 570 3471 570 2752 
L 275 2752 
z
" transform="scale(0.015625)"/>
       <path id="LinLibertineT-75" d="M 1389 -64 
C 1638 -64 1939 64 2253 320 
C 2285 345 2342 358 2349 313 
C 2368 154 2419 -64 2419 -64 
C 2470 -83 2502 -77 2541 -64 
C 2682 51 2906 148 3296 191 
C 3334 230 3334 326 3296 365 
C 2886 397 2829 519 2829 832 
L 2829 2060 
C 2829 2253 2854 2720 2854 2720 
C 2854 2739 2835 2758 2803 2758 
C 2771 2752 2675 2752 2579 2752 
C 2374 2752 2144 2752 1926 2752 
C 1888 2713 1888 2573 1926 2534 
C 2240 2534 2323 2457 2323 2034 
L 2323 795 
C 2323 673 2310 622 2221 545 
C 1984 340 1741 237 1581 237 
C 1389 237 1069 327 1069 896 
L 1069 2061 
C 1069 2253 1094 2720 1094 2720 
C 1094 2739 1075 2758 1043 2758 
C 1011 2752 915 2752 819 2752 
C 614 2752 384 2752 166 2752 
C 128 2714 128 2580 166 2542 
C 474 2516 563 2445 563 2031 
L 563 804 
C 563 364 755 -64 1389 -64 
z
" transform="scale(0.015625)"/>
      </defs>
      <use xlink:href="#LinLibertineT-90" transform="scale(0.996264)"/>
      <use xlink:href="#LinLibertineT-61" transform="translate(124.632664 0) scale(0.996264)"/>
      <use xlink:href="#LinLibertineT-64" transform="translate(170.161896 0) scale(0.996264)"/>
      <use xlink:href="#LinLibertineT-72" transform="translate(220.5728 0) scale(0.996264)"/>
      <use xlink:href="#LinLibertineT-61" transform="translate(257.633788 0) scale(0.996264)"/>
      <use xlink:href="#LinLibertineT-74" transform="translate(303.16302 0) scale(0.996264)"/>
      <use xlink:href="#LinLibertineT-75" transform="translate(334.644953 0) scale(0.996264)"/>
      <use xlink:href="#LinLibertineT-72" transform="translate(387.546578 0) scale(0.996264)"/>
      <use xlink:href="#LinLibertineT-65" transform="translate(423.810506 0) scale(0.996264)"/>
     </g>
    </g>
    <g id="line2d_91">
     <path d="M 209.846029 34.329099 
L 221.846029 34.329099 
L 233.846029 34.329099 
" style="fill: none; stroke: #000000; stroke-width: 1.8; stroke-linecap: square"/>
    </g>
    <g id="text_19">
     <!-- $s_x$ -->
     <g transform="translate(243.446029 38.529099) scale(0.12 -0.12)">
      <defs>
       <path id="LibertineMathMI-42" d="M 1114 -64 
L 1210 -64 
C 1837 -64 2214 283 2214 757 
C 2214 1059 2042 1353 1453 1745 
C 1261 1873 1197 1989 1197 2149 
C 1197 2373 1325 2604 1600 2604 
C 1760 2604 1869 2553 1888 2418 
C 1907 2262 2016 2082 2182 2082 
C 2362 2082 2413 2198 2413 2301 
C 2413 2532 2080 2816 1683 2816 
C 1126 2816 787 2403 787 2010 
C 787 1752 928 1475 1344 1191 
C 1683 959 1734 746 1734 611 
C 1734 257 1478 134 1190 134 
C 1024 134 934 166 915 308 
C 896 457 806 650 614 650 
C 429 650 378 493 378 421 
C 378 178 672 -64 1114 -64 
z
" transform="scale(0.015625)"/>
       <path id="LibertineMathMI-47" d="M 1376 1983 
L 1600 1347 
L 1005 467 
C 941 371 870 346 826 346 
C 774 346 704 358 653 384 
C 595 410 531 422 467 422 
C 326 422 224 320 224 179 
C 224 13 448 -64 595 -64 
C 813 -64 966 32 1248 436 
L 1690 1077 
L 1939 295 
C 2022 38 2086 -64 2304 -64 
C 2528 -64 2810 58 3008 390 
C 2982 448 2925 499 2854 512 
C 2688 301 2605 250 2534 250 
C 2477 250 2432 333 2381 487 
L 2035 1520 
L 2522 2239 
C 2624 2387 2778 2412 2822 2412 
C 2874 2412 2957 2393 3014 2348 
C 3059 2310 3162 2284 3226 2284 
C 3315 2284 3430 2412 3430 2560 
C 3430 2720 3258 2816 3110 2816 
C 2790 2816 2579 2707 2266 2251 
L 1946 1790 
L 1766 2354 
C 1658 2688 1587 2816 1427 2816 
C 1280 2816 806 2553 582 2387 
C 589 2316 614 2233 666 2188 
C 742 2220 954 2323 1088 2323 
C 1165 2323 1229 2310 1267 2252 
C 1293 2201 1338 2091 1376 1983 
z
" transform="scale(0.015625)"/>
      </defs>
      <use xlink:href="#LibertineMathMI-42" transform="scale(0.996264)"/>
      <use xlink:href="#LibertineMathMI-47" transform="translate(36.473211 -14.943915) scale(0.727268)"/>
     </g>
    </g>
    <g id="line2d_92">
     <path d="M 209.846029 51.514643 
L 221.846029 51.514643 
L 233.846029 51.514643 
" style="fill: none; stroke-dasharray: 6.66,2.88; stroke-dashoffset: 0; stroke: #000000; stroke-width: 1.8"/>
    </g>
    <g id="text_20">
     <!-- $s_p$ -->
     <g transform="translate(243.446029 55.714643) scale(0.12 -0.12)">
      <defs>
       <path id="LibertineMathMI-3f" d="M 1702 2592 
C 1728 2707 1786 2896 1786 2970 
C 1786 3074 1722 3136 1517 3136 
C 1274 3136 1274 2857 1222 2615 
L 1139 2239 
C 819 2010 582 1819 403 1596 
C 429 1507 486 1462 602 1462 
C 742 1648 883 1764 1062 1911 
L 403 -1024 
C 365 -1204 269 -1280 64 -1312 
L -58 -1332 
C -90 -1338 -122 -1344 -122 -1383 
L -122 -1504 
L -109 -1504 
C -109 -1504 326 -1504 557 -1504 
C 806 -1504 1242 -1504 1242 -1504 
L 1254 -1490 
L 1254 -1357 
C 1254 -1325 1242 -1312 1216 -1306 
L 1094 -1287 
C 998 -1274 832 -1242 883 -1025 
L 1165 147 
C 1261 45 1446 -64 1632 -64 
C 2086 -64 2458 193 2739 532 
C 3085 956 3258 1392 3258 1854 
C 3258 2392 3078 2816 2438 2816 
C 2112 2816 1875 2694 1702 2592 
z
M 2733 1751 
C 2733 1437 2605 994 2362 615 
C 2195 352 1939 160 1696 160 
C 1530 160 1357 243 1222 429 
L 1645 2303 
C 1805 2406 1990 2521 2234 2521 
C 2669 2521 2733 2066 2733 1751 
z
" transform="scale(0.015625)"/>
      </defs>
      <use xlink:href="#LibertineMathMI-42" transform="scale(0.996264)"/>
      <use xlink:href="#LibertineMathMI-3f" transform="translate(37.200418 -14.943915) scale(0.727268)"/>
     </g>
    </g>
   </g>
  </g>
  <g id="patch_7">
   <path d="M 48.408826 64.420751 
L 255.460377 64.420751 
Q 263.964314 64.420751 263.964314 59.165029 
L 263.964314 13.389443 
Q 263.964314 8.133721 255.460377 8.133721 
L 48.408826 8.133721 
Q 39.904889 8.133721 39.904889 13.389443 
L 39.904889 59.165029 
Q 39.904889 64.420751 48.408826 64.420751 
L 48.408826 64.420751 
z
" style="fill: none; stroke: #cccccc; stroke-opacity: 0.8; stroke-linejoin: miter"/>
  </g>
 </g>
 <defs>
  <clipPath id="pb6fa7eea90">
   <rect x="33.947409" y="2.16" width="329.527559" height="202.345301"/>
  </clipPath>
 </defs>
</svg>
